<?xml version="1.0" encoding="UTF-8" standalone="no"?>
<!-- Created with Inkscape (http://www.inkscape.org/) -->
<svg xmlns="http://www.w3.org/2000/svg" xmlns:svg="http://www.w3.org/2000/svg" width="31.621235mm" height="34.268021mm" viewBox="0 0 31.621235 34.268021" version="1.1" id="svg3553">
  <defs id="defs3550">
    <clipPath id="clipPath1992">
      <path d="M -2.2440947e-6,2.8346457e-5 H 1920 V 1019.002 H -2.2440947e-6 Z" id="path1994" style="stroke-width:0.999998"></path>
    </clipPath>
    <clipPath id="clipPath1988">
      <path d="M -2.2440947e-6,2.8346457e-5 H 1920 V 1019.002 H -2.2440947e-6 Z" id="path1990" style="stroke-width:0.999998"></path>
    </clipPath>
    <clipPath id="clipPath1984">
      <path d="M -2.2440947e-6,2.8346457e-5 H 1920 V 1019.002 H -2.2440947e-6 Z" id="path1986" style="stroke-width:0.999998"></path>
    </clipPath>
  </defs>
  <g id="layer1" transform="translate(-118.75138,-141.86251)">
    <path d="m 1610.168,936.6784 h -21.761 v 12.6979 h 20.151 v 14.5833 h -20.151 v 10.5813 h 21.761 v 14.5833 h -39.932 v -67.2597 h 39.932 z" style="fill:#8d1746;fill-opacity:1;fill-rule:nonzero;stroke:none" id="path354" transform="matrix(0.35277776,0,0,-0.35277778,-423.79048,490.80355)" clip-path="url(#clipPath1992)"></path>
    <path d="m 1612.61,906.9256 h -14.939 -14.939 -14.939 -14.939 v -14.9391 h 14.939 14.939 14.939 14.939 14.939 v 14.9391 z" style="fill:#195082;fill-opacity:1;fill-rule:nonzero;stroke:none" id="path356" transform="matrix(0.35277776,0,0,-0.35277778,-423.79048,490.80355)" clip-path="url(#clipPath1988)"></path>
    <path d="m 1537.914,906.9253 h 14.939 v 14.93904 h -14.939 z" style="fill:#6cadbc;fill-opacity:1;fill-rule:nonzero;stroke:none" id="path358" transform="matrix(0.35277776,0,0,-0.35277778,-423.79048,490.80355)" clip-path="url(#clipPath1984)"></path>
  </g>
</svg>
