<svg xmlns:inkscape="http://www.inkscape.org/namespaces/inkscape"
    xmlns:sodipodi="http://sodipodi.sourceforge.net/DTD/sodipodi-0.dtd"
    xmlns="http://www.w3.org/2000/svg" xmlns:svg="http://www.w3.org/2000/svg"
    xmlns:rdf="http://www.w3.org/1999/02/22-rdf-syntax-ns#"
    xmlns:cc="http://creativecommons.org/ns#" xmlns:dc="http://purl.org/dc/elements/1.1/"
    sodipodi:docname="ERCIS_logo_text_ohne_punkt.svg" viewBox="0 0 340.77313 300.27249"
    height="300.27249" width="340.77313" xml:space="preserve"
    inkscape:version="1.2 (dc2aedaf03, 2022-05-15)" id="svg2">  <metadata></metadata>  <defs id="defs6">    <clipPath id="clipPath12">      <path inkscape:connector-curvature="0" id="path14" d="m 0,0 419.528,0 0,595.276 L 0,595.276 0,0 Z"></path>    </clipPath>    <clipPath id="clipPath20">      <path inkscape:connector-curvature="0" id="path22" d="m 0,0 419.528,0 0,595.276 L 0,595.276 0,0 Z"></path>    </clipPath>    <clipPath id="clipPath48">      <path inkscape:connector-curvature="0" id="path50" d="m 85.89,218.268 266.457,0 0,229.606 -266.457,0 0,-229.606 z"></path>    </clipPath>    <clipPath id="clipPath866">      <path inkscape:connector-curvature="0" id="path868" d="m 86.259,218.268 265.702,0 0,229.606 -265.702,0 0,-229.606 z"></path>    </clipPath>    <clipPath id="clipPath882">      <path inkscape:connector-curvature="0" id="path884" d="m 0,595.276 419.528,0 L 419.528,0 0,0 0,595.276 Z"></path>    </clipPath>  </defs>  <g clip-path="url(#clipPath12)" transform="matrix(1.25,0,0,-1.25,-104.31813,569.41375)" inkscape:label="logo_schrift" inkscape:groupmode="layer" id="g10">    <path d="m 222.4424,292.8938 v 10.661 h 7.709 v -1.258 h -6.298 v -3.265 h 5.898 v -1.251 h -5.898 v -3.629 h 6.545 v -1.258 z" style="fill:#8797a3;fill-opacity:1;fill-rule:nonzero;stroke:none" id="path42" inkscape:connector-curvature="0"></path>    <g inkscape:export-ydpi="599" inkscape:export-xdpi="599" id="g44" style="fill:#000000"></g>    <path d="m 237.2417,292.8938 v 1.134 c -0.601,-0.872 -1.418,-1.309 -2.451,-1.309 -0.456,0 -0.881,0.088 -1.276,0.262 -0.395,0.175 -0.688,0.394 -0.88,0.658 -0.192,0.265 -0.326,0.588 -0.404,0.971 -0.053,0.257 -0.08,0.664 -0.08,1.222 v 4.785 h 1.309 v -4.283 c 0,-0.684 0.027,-1.144 0.08,-1.382 0.082,-0.344 0.257,-0.615 0.524,-0.81 0.267,-0.197 0.596,-0.295 0.989,-0.295 0.393,0 0.761,0.1 1.106,0.301 0.344,0.202 0.587,0.475 0.73,0.822 0.144,0.347 0.215,0.85 0.215,1.509 v 4.138 h 1.309 v -7.723 z" style="fill:#8797a3;fill-opacity:1;fill-rule:nonzero;stroke:none" id="path54" inkscape:connector-curvature="0"></path>    <path d="m 240.4492,292.8938 v 7.723 h 1.178 v -1.171 c 0.301,0.548 0.578,0.909 0.833,1.084 0.254,0.175 0.534,0.262 0.839,0.262 0.442,0 0.891,-0.141 1.346,-0.422 l -0.45,-1.214 c -0.321,0.189 -0.641,0.284 -0.961,0.284 -0.286,0 -0.543,-0.087 -0.77,-0.259 -0.229,-0.172 -0.391,-0.411 -0.488,-0.717 -0.145,-0.465 -0.218,-0.974 -0.218,-1.526 v -4.044 z" style="fill:#8797a3;fill-opacity:1;fill-rule:nonzero;stroke:none" id="path58" inkscape:connector-curvature="0"></path>    <path d="m 246.2818,296.7556 c 0,-0.989 0.216,-1.73 0.647,-2.222 0.432,-0.492 0.975,-0.738 1.629,-0.738 0.65,0 1.19,0.247 1.621,0.742 0.433,0.494 0.648,1.248 0.648,2.262 0,0.954 -0.217,1.678 -0.651,2.17 -0.433,0.492 -0.973,0.738 -1.618,0.738 -0.654,0 -1.197,-0.245 -1.629,-0.734 -0.431,-0.49 -0.647,-1.229 -0.647,-2.218 m -1.345,0 c 0,1.43 0.397,2.489 1.192,3.178 0.664,0.572 1.474,0.858 2.429,0.858 1.062,0 1.93,-0.348 2.604,-1.044 0.674,-0.695 1.011,-1.657 1.011,-2.883 0,-0.994 -0.149,-1.776 -0.447,-2.345 -0.299,-0.57 -0.732,-1.013 -1.302,-1.328 -0.57,-0.315 -1.193,-0.472 -1.866,-0.472 -1.08,0 -1.955,0.346 -2.622,1.039 -0.666,0.694 -0.999,1.693 -0.999,2.997" style="fill:#8797a3;fill-opacity:1;fill-rule:nonzero;stroke:none" id="path62" inkscape:connector-curvature="0"></path>    <path d="m 254.8927,296.7119 c 0,-0.995 0.201,-1.729 0.603,-2.204 0.403,-0.475 0.89,-0.713 1.462,-0.713 0.582,0 1.081,0.246 1.495,0.738 0.414,0.493 0.622,1.255 0.622,2.288 0,0.984 -0.203,1.721 -0.608,2.211 -0.405,0.489 -0.888,0.734 -1.45,0.734 -0.558,0 -1.052,-0.26 -1.48,-0.781 -0.43,-0.522 -0.644,-1.279 -0.644,-2.273 m -1.186,-6.778 v 10.683 h 1.193 v -1.003 c 0.282,0.392 0.599,0.687 0.953,0.883 0.354,0.196 0.783,0.295 1.287,0.295 0.66,0 1.241,-0.17 1.746,-0.509 0.504,-0.34 0.884,-0.819 1.141,-1.437 0.258,-0.618 0.386,-1.295 0.386,-2.032 0,-0.791 -0.142,-1.502 -0.426,-2.135 -0.283,-0.633 -0.695,-1.117 -1.236,-1.454 -0.54,-0.337 -1.108,-0.506 -1.705,-0.506 -0.437,0 -0.828,0.093 -1.175,0.276 -0.346,0.185 -0.631,0.418 -0.854,0.699 v -3.76 z" style="fill:#8797a3;fill-opacity:1;fill-rule:nonzero;stroke:none" id="path66" inkscape:connector-curvature="0"></path>    <path d="m 262.9802,297.4976 h 4.313 c -0.059,0.65 -0.223,1.136 -0.495,1.461 -0.417,0.504 -0.958,0.757 -1.622,0.757 -0.601,0 -1.107,-0.202 -1.517,-0.604 -0.409,-0.402 -0.636,-0.941 -0.679,-1.614 m 4.298,-2.117 1.352,-0.167 c -0.213,-0.791 -0.608,-1.404 -1.185,-1.84 -0.577,-0.437 -1.314,-0.654 -2.211,-0.654 -1.129,0 -2.025,0.348 -2.687,1.043 -0.662,0.696 -0.993,1.671 -0.993,2.928 0,1.299 0.335,2.307 1.003,3.025 0.67,0.717 1.538,1.076 2.604,1.076 1.033,0 1.877,-0.352 2.531,-1.054 0.655,-0.704 0.983,-1.693 0.983,-2.968 0,-0.077 -0.003,-0.194 -0.008,-0.349 h -5.76 c 0.049,-0.848 0.289,-1.498 0.72,-1.948 0.431,-0.452 0.97,-0.677 1.614,-0.677 0.48,0 0.89,0.126 1.23,0.378 0.339,0.252 0.608,0.654 0.807,1.207" style="fill:#8797a3;fill-opacity:1;fill-rule:nonzero;stroke:none" id="path70" inkscape:connector-curvature="0"></path>    <path d="m 275.2052,296.7698 c -0.475,-0.194 -1.188,-0.359 -2.139,-0.494 -0.537,-0.078 -0.918,-0.165 -1.141,-0.262 -0.223,-0.097 -0.395,-0.239 -0.516,-0.425 -0.121,-0.187 -0.182,-0.395 -0.182,-0.623 0,-0.349 0.132,-0.64 0.396,-0.873 0.264,-0.232 0.651,-0.348 1.16,-0.348 0.504,0 0.953,0.11 1.346,0.331 0.392,0.22 0.681,0.522 0.865,0.905 0.14,0.296 0.211,0.732 0.211,1.309 z m 0.109,-2.923 c -0.485,-0.413 -0.951,-0.703 -1.399,-0.873 -0.45,-0.17 -0.931,-0.255 -1.445,-0.255 -0.848,0 -1.5,0.207 -1.956,0.622 -0.456,0.415 -0.684,0.944 -0.684,1.589 0,0.378 0.087,0.724 0.259,1.036 0.172,0.313 0.398,0.564 0.677,0.753 0.278,0.189 0.592,0.332 0.941,0.43 0.257,0.068 0.644,0.132 1.164,0.196 1.057,0.125 1.835,0.276 2.334,0.451 0.005,0.178 0.008,0.293 0.008,0.341 0,0.534 -0.124,0.909 -0.371,1.128 -0.335,0.295 -0.832,0.443 -1.492,0.443 -0.616,0 -1.07,-0.108 -1.363,-0.323 -0.293,-0.216 -0.51,-0.598 -0.651,-1.146 l -1.28,0.174 c 0.116,0.549 0.308,0.991 0.575,1.327 0.266,0.337 0.652,0.597 1.156,0.779 0.504,0.182 1.088,0.273 1.752,0.273 0.66,0 1.196,-0.078 1.607,-0.233 0.413,-0.155 0.716,-0.35 0.91,-0.586 0.194,-0.235 0.33,-0.532 0.407,-0.89 0.044,-0.223 0.066,-0.626 0.066,-1.208 v -1.745 c 0,-1.217 0.028,-1.987 0.083,-2.309 0.056,-0.323 0.166,-0.631 0.331,-0.927 h -1.367 c -0.136,0.271 -0.222,0.589 -0.262,0.953" style="fill:#8797a3;fill-opacity:1;fill-rule:nonzero;stroke:none" id="path74" inkscape:connector-curvature="0"></path>    <path d="m 278.5575,292.8938 v 7.723 h 1.178 v -1.098 c 0.568,0.849 1.387,1.273 2.458,1.273 0.466,0 0.894,-0.084 1.285,-0.251 0.39,-0.168 0.682,-0.387 0.876,-0.658 0.194,-0.272 0.33,-0.594 0.407,-0.968 0.048,-0.243 0.072,-0.666 0.072,-1.272 v -4.749 h -1.308 v 4.698 c 0,0.533 -0.052,0.932 -0.153,1.196 -0.102,0.265 -0.283,0.475 -0.542,0.633 -0.259,0.158 -0.564,0.236 -0.913,0.236 -0.557,0 -1.038,-0.177 -1.443,-0.53 -0.405,-0.354 -0.607,-1.026 -0.607,-2.015 v -4.218 z" style="fill:#8797a3;fill-opacity:1;fill-rule:nonzero;stroke:none" id="path78" inkscape:connector-curvature="0"></path>    <path d="m 223.8462,280.9768 h 3.033 c 0.644,0 1.149,0.067 1.512,0.2 0.363,0.133 0.64,0.346 0.829,0.64 0.19,0.294 0.284,0.612 0.284,0.957 0,0.504 -0.183,0.918 -0.549,1.243 -0.367,0.325 -0.944,0.487 -1.734,0.487 h -3.375 z m -1.411,-5.956 v 10.661 h 4.727 c 0.95,0 1.673,-0.096 2.167,-0.287 0.494,-0.191 0.89,-0.53 1.186,-1.014 0.296,-0.485 0.443,-1.022 0.443,-1.607 0,-0.757 -0.245,-1.395 -0.734,-1.913 -0.49,-0.519 -1.247,-0.849 -2.269,-0.989 0.373,-0.18 0.657,-0.357 0.851,-0.531 0.411,-0.378 0.802,-0.851 1.171,-1.419 l 1.854,-2.901 h -1.775 l -1.411,2.218 c -0.411,0.64 -0.75,1.129 -1.018,1.469 -0.267,0.339 -0.505,0.577 -0.716,0.712 -0.21,0.136 -0.425,0.23 -0.643,0.285 -0.16,0.033 -0.423,0.05 -0.785,0.05 h -1.637 v -4.734 z" style="fill:#8797a3;fill-opacity:1;fill-rule:nonzero;stroke:none" id="path82" inkscape:connector-curvature="0"></path>    <path d="m 233.9909,279.6241 h 4.313 c -0.058,0.65 -0.223,1.137 -0.495,1.462 -0.417,0.504 -0.957,0.756 -1.622,0.756 -0.6,0 -1.107,-0.201 -1.516,-0.604 -0.41,-0.402 -0.636,-0.94 -0.68,-1.614 m 4.298,-2.116 1.353,-0.168 c -0.214,-0.79 -0.608,-1.403 -1.185,-1.839 -0.577,-0.437 -1.315,-0.655 -2.211,-0.655 -1.129,0 -2.025,0.348 -2.687,1.043 -0.662,0.696 -0.993,1.672 -0.993,2.928 0,1.299 0.334,2.307 1.003,3.025 0.669,0.717 1.537,1.076 2.604,1.076 1.033,0 1.876,-0.351 2.531,-1.054 0.654,-0.703 0.981,-1.693 0.981,-2.968 0,-0.077 -0.002,-0.194 -0.007,-0.349 h -5.76 c 0.048,-0.848 0.289,-1.498 0.721,-1.948 0.431,-0.451 0.969,-0.677 1.614,-0.677 0.48,0 0.889,0.126 1.228,0.378 0.34,0.252 0.609,0.655 0.808,1.208" style="fill:#8797a3;fill-opacity:1;fill-rule:nonzero;stroke:none" id="path86" inkscape:connector-curvature="0"></path>    <path d="m 240.7619,277.3256 1.295,0.204 c 0.073,-0.519 0.275,-0.916 0.607,-1.193 0.332,-0.276 0.796,-0.414 1.392,-0.414 0.602,0 1.048,0.122 1.338,0.367 0.292,0.244 0.437,0.532 0.437,0.861 0,0.296 -0.129,0.529 -0.385,0.699 -0.18,0.116 -0.626,0.264 -1.338,0.444 -0.961,0.241 -1.626,0.452 -1.997,0.629 -0.371,0.177 -0.652,0.422 -0.844,0.734 -0.191,0.313 -0.287,0.658 -0.287,1.036 0,0.345 0.079,0.664 0.237,0.957 0.157,0.293 0.372,0.537 0.643,0.731 0.203,0.15 0.482,0.277 0.832,0.381 0.352,0.104 0.729,0.157 1.132,0.157 0.606,0 1.138,-0.087 1.596,-0.262 0.458,-0.175 0.796,-0.411 1.015,-0.709 0.218,-0.298 0.368,-0.697 0.451,-1.196 l -1.28,-0.175 c -0.059,0.398 -0.227,0.708 -0.505,0.931 -0.28,0.222 -0.674,0.335 -1.183,0.335 -0.601,0 -1.03,-0.1 -1.287,-0.298 -0.257,-0.2 -0.385,-0.432 -0.385,-0.699 0,-0.169 0.053,-0.323 0.159,-0.458 0.107,-0.141 0.274,-0.257 0.502,-0.349 0.132,-0.049 0.517,-0.161 1.157,-0.334 0.926,-0.248 1.572,-0.45 1.938,-0.608 0.366,-0.157 0.653,-0.387 0.862,-0.687 0.208,-0.301 0.312,-0.674 0.312,-1.12 0,-0.437 -0.127,-0.847 -0.381,-1.233 -0.255,-0.385 -0.622,-0.683 -1.102,-0.894 -0.48,-0.212 -1.023,-0.317 -1.629,-0.317 -1.003,0 -1.769,0.209 -2.295,0.625 -0.526,0.418 -0.861,1.036 -1.007,1.855" style="fill:#8797a3;fill-opacity:1;fill-rule:nonzero;stroke:none" id="path90" inkscape:connector-curvature="0"></path>    <path d="m 249.7215,279.6241 h 4.313 c -0.058,0.65 -0.223,1.137 -0.495,1.462 -0.417,0.504 -0.957,0.756 -1.622,0.756 -0.6,0 -1.107,-0.201 -1.516,-0.604 -0.41,-0.402 -0.636,-0.94 -0.68,-1.614 m 4.298,-2.116 1.353,-0.168 c -0.214,-0.79 -0.609,-1.403 -1.185,-1.839 -0.577,-0.437 -1.315,-0.655 -2.211,-0.655 -1.13,0 -2.025,0.348 -2.687,1.043 -0.663,0.696 -0.993,1.672 -0.993,2.928 0,1.299 0.335,2.307 1.004,3.025 0.668,0.717 1.537,1.076 2.604,1.076 1.032,0 1.875,-0.351 2.53,-1.054 0.655,-0.703 0.982,-1.693 0.982,-2.968 0,-0.077 -0.003,-0.194 -0.008,-0.349 h -5.759 c 0.048,-0.848 0.288,-1.498 0.72,-1.948 0.431,-0.451 0.969,-0.677 1.614,-0.677 0.481,0 0.889,0.126 1.229,0.378 0.339,0.252 0.608,0.655 0.807,1.208" style="fill:#8797a3;fill-opacity:1;fill-rule:nonzero;stroke:none" id="path94" inkscape:connector-curvature="0"></path>    <path d="m 261.9465,278.8965 c -0.475,-0.194 -1.187,-0.359 -2.137,-0.494 -0.539,-0.078 -0.919,-0.165 -1.142,-0.262 -0.224,-0.097 -0.396,-0.239 -0.517,-0.425 -0.121,-0.187 -0.181,-0.394 -0.181,-0.622 0,-0.349 0.132,-0.64 0.396,-0.873 0.263,-0.233 0.651,-0.349 1.159,-0.349 0.505,0 0.953,0.11 1.346,0.331 0.392,0.22 0.681,0.523 0.865,0.905 0.141,0.296 0.211,0.732 0.211,1.309 z m 0.109,-2.923 c -0.484,-0.412 -0.951,-0.703 -1.399,-0.873 -0.449,-0.169 -0.93,-0.255 -1.444,-0.255 -0.849,0 -1.5,0.208 -1.956,0.622 -0.456,0.415 -0.683,0.944 -0.683,1.59 0,0.377 0.085,0.723 0.258,1.035 0.171,0.313 0.396,0.564 0.675,0.753 0.279,0.189 0.593,0.332 0.942,0.43 0.257,0.068 0.645,0.133 1.164,0.196 1.057,0.125 1.835,0.277 2.334,0.451 0.005,0.179 0.008,0.293 0.008,0.342 0,0.533 -0.124,0.908 -0.371,1.127 -0.335,0.295 -0.831,0.443 -1.492,0.443 -0.614,0 -1.069,-0.107 -1.362,-0.323 -0.294,-0.216 -0.511,-0.598 -0.651,-1.146 l -1.28,0.175 c 0.116,0.548 0.308,0.99 0.574,1.327 0.266,0.337 0.652,0.596 1.157,0.778 0.503,0.182 1.088,0.273 1.753,0.273 0.658,0 1.194,-0.078 1.606,-0.233 0.412,-0.155 0.716,-0.35 0.91,-0.585 0.193,-0.235 0.329,-0.532 0.407,-0.891 0.043,-0.223 0.065,-0.625 0.065,-1.208 v -1.745 c 0,-1.217 0.028,-1.986 0.084,-2.309 0.055,-0.323 0.166,-0.631 0.33,-0.927 h -1.367 c -0.136,0.271 -0.222,0.589 -0.262,0.953" style="fill:#8797a3;fill-opacity:1;fill-rule:nonzero;stroke:none" id="path98" inkscape:connector-curvature="0"></path>    <path d="m 265.285,275.0204 v 7.723 h 1.178 v -1.171 c 0.301,0.548 0.578,0.91 0.833,1.084 0.255,0.175 0.535,0.262 0.84,0.262 0.442,0 0.89,-0.141 1.345,-0.422 l -0.45,-1.215 c -0.321,0.19 -0.64,0.285 -0.96,0.285 -0.286,0 -0.543,-0.086 -0.771,-0.258 -0.228,-0.173 -0.39,-0.412 -0.487,-0.717 -0.146,-0.466 -0.218,-0.975 -0.218,-1.527 v -4.044 z" style="fill:#8797a3;fill-opacity:1;fill-rule:nonzero;stroke:none" id="path102" inkscape:connector-curvature="0"></path>    <path d="m 275.3,277.8494 1.287,-0.167 c -0.141,-0.887 -0.501,-1.582 -1.08,-2.084 -0.579,-0.501 -1.291,-0.753 -2.134,-0.753 -1.057,0 -1.908,0.346 -2.549,1.037 -0.644,0.691 -0.964,1.681 -0.964,2.971 0,0.834 0.138,1.563 0.414,2.189 0.277,0.625 0.698,1.094 1.262,1.407 0.565,0.313 1.18,0.469 1.844,0.469 0.838,0 1.524,-0.212 2.058,-0.636 0.533,-0.425 0.875,-1.027 1.025,-1.808 l -1.273,-0.196 c -0.12,0.519 -0.336,0.909 -0.643,1.171 -0.308,0.262 -0.68,0.393 -1.116,0.393 -0.66,0 -1.196,-0.236 -1.607,-0.709 -0.413,-0.473 -0.619,-1.221 -0.619,-2.244 0,-1.037 0.199,-1.792 0.597,-2.262 0.397,-0.47 0.916,-0.705 1.556,-0.705 0.513,0 0.942,0.157 1.287,0.472 0.344,0.316 0.563,0.801 0.655,1.455" style="fill:#8797a3;fill-opacity:1;fill-rule:nonzero;stroke:none" id="path106" inkscape:connector-curvature="0"></path>    <path d="m 277.7064,275.0204 v 10.662 h 1.309 v -3.826 c 0.611,0.708 1.382,1.062 2.313,1.062 0.572,0 1.07,-0.113 1.491,-0.338 0.422,-0.225 0.724,-0.537 0.905,-0.935 0.183,-0.397 0.273,-0.974 0.273,-1.73 v -4.895 h -1.309 v 4.895 c 0,0.654 -0.142,1.13 -0.425,1.428 -0.284,0.299 -0.685,0.448 -1.203,0.448 -0.389,0 -0.754,-0.101 -1.096,-0.302 -0.342,-0.201 -0.585,-0.474 -0.73,-0.818 -0.146,-0.344 -0.219,-0.819 -0.219,-1.426 v -4.225 z" style="fill:#8797a3;fill-opacity:1;fill-rule:nonzero;stroke:none" id="path110" inkscape:connector-curvature="0"></path>    <path d="m 230.0208,260.8858 1.41,-0.356 c -0.295,-1.159 -0.827,-2.042 -1.595,-2.651 -0.769,-0.609 -1.709,-0.913 -2.819,-0.913 -1.149,0 -2.083,0.234 -2.804,0.702 -0.72,0.468 -1.267,1.145 -1.643,2.032 -0.376,0.888 -0.564,1.84 -0.564,2.859 0,1.11 0.212,2.078 0.636,2.905 0.425,0.827 1.029,1.454 1.812,1.884 0.782,0.429 1.644,0.643 2.585,0.643 1.067,0 1.963,-0.271 2.691,-0.814 0.727,-0.543 1.233,-1.307 1.52,-2.291 l -1.389,-0.327 c -0.248,0.775 -0.607,1.34 -1.077,1.694 -0.47,0.354 -1.062,0.531 -1.775,0.531 -0.819,0 -1.504,-0.196 -2.053,-0.589 -0.551,-0.393 -0.938,-0.92 -1.161,-1.582 -0.223,-0.662 -0.334,-1.344 -0.334,-2.047 0,-0.907 0.132,-1.698 0.396,-2.375 0.264,-0.676 0.676,-1.181 1.233,-1.516 0.557,-0.334 1.161,-0.502 1.81,-0.502 0.79,0 1.46,0.228 2.008,0.684 0.547,0.456 0.918,1.132 1.113,2.029" style="fill:#8797a3;fill-opacity:1;fill-rule:nonzero;stroke:none" id="path114" inkscape:connector-curvature="0"></path>    <path d="m 233.9909,261.7512 h 4.313 c -0.058,0.65 -0.223,1.137 -0.495,1.462 -0.417,0.504 -0.957,0.756 -1.622,0.756 -0.6,0 -1.107,-0.201 -1.516,-0.603 -0.41,-0.403 -0.636,-0.941 -0.68,-1.615 m 4.298,-2.116 1.353,-0.168 c -0.214,-0.79 -0.608,-1.403 -1.185,-1.839 -0.577,-0.437 -1.315,-0.655 -2.211,-0.655 -1.129,0 -2.025,0.348 -2.687,1.043 -0.662,0.697 -0.993,1.672 -0.993,2.928 0,1.299 0.334,2.308 1.003,3.025 0.669,0.718 1.537,1.076 2.604,1.076 1.033,0 1.876,-0.351 2.531,-1.054 0.654,-0.703 0.981,-1.692 0.981,-2.967 0,-0.078 -0.002,-0.194 -0.007,-0.349 h -5.76 c 0.048,-0.849 0.289,-1.499 0.721,-1.949 0.431,-0.451 0.969,-0.677 1.614,-0.677 0.48,0 0.889,0.126 1.228,0.379 0.34,0.251 0.609,0.654 0.808,1.207" style="fill:#8797a3;fill-opacity:1;fill-rule:nonzero;stroke:none" id="path118" inkscape:connector-curvature="0"></path>    <path d="m 241.2856,257.1478 v 7.723 h 1.178 v -1.098 c 0.567,0.849 1.387,1.273 2.458,1.273 0.466,0 0.893,-0.084 1.284,-0.251 0.39,-0.168 0.683,-0.387 0.876,-0.658 0.194,-0.272 0.33,-0.594 0.407,-0.968 0.049,-0.242 0.073,-0.666 0.073,-1.272 v -4.749 h -1.309 v 4.698 c 0,0.533 -0.05,0.932 -0.153,1.196 -0.102,0.265 -0.282,0.475 -0.541,0.633 -0.26,0.158 -0.564,0.236 -0.913,0.236 -0.557,0 -1.039,-0.177 -1.444,-0.53 -0.405,-0.354 -0.607,-1.026 -0.607,-2.015 v -4.218 z" style="fill:#8797a3;fill-opacity:1;fill-rule:nonzero;stroke:none" id="path122" inkscape:connector-curvature="0"></path>    <path d="m 252.4271,258.3187 0.19,-1.157 c -0.369,-0.077 -0.699,-0.116 -0.99,-0.116 -0.475,0 -0.843,0.076 -1.105,0.225 -0.262,0.151 -0.447,0.348 -0.553,0.594 -0.107,0.244 -0.16,0.76 -0.16,1.545 v 4.444 h -0.96 v 1.017 h 0.96 v 1.913 l 1.302,0.785 v -2.698 h 1.316 v -1.017 h -1.316 v -4.517 c 0,-0.373 0.023,-0.613 0.069,-0.72 0.046,-0.107 0.121,-0.191 0.226,-0.254 0.104,-0.064 0.253,-0.095 0.447,-0.095 0.145,0 0.336,0.017 0.574,0.051" style="fill:#8797a3;fill-opacity:1;fill-rule:nonzero;stroke:none" id="path126" inkscape:connector-curvature="0"></path>    <path d="m 254.6967,261.7512 h 4.313 c -0.059,0.65 -0.223,1.137 -0.495,1.462 -0.418,0.504 -0.958,0.756 -1.622,0.756 -0.601,0 -1.107,-0.201 -1.517,-0.603 -0.409,-0.403 -0.636,-0.941 -0.679,-1.615 m 4.298,-2.116 1.352,-0.168 c -0.213,-0.79 -0.608,-1.403 -1.185,-1.839 -0.577,-0.437 -1.314,-0.655 -2.211,-0.655 -1.129,0 -2.025,0.348 -2.687,1.043 -0.661,0.697 -0.993,1.672 -0.993,2.928 0,1.299 0.334,2.308 1.003,3.025 0.67,0.718 1.538,1.076 2.604,1.076 1.033,0 1.877,-0.351 2.531,-1.054 0.655,-0.703 0.982,-1.692 0.982,-2.967 0,-0.078 -0.002,-0.194 -0.007,-0.349 h -5.76 c 0.048,-0.849 0.289,-1.499 0.72,-1.949 0.431,-0.451 0.97,-0.677 1.614,-0.677 0.48,0 0.89,0.126 1.229,0.379 0.34,0.251 0.609,0.654 0.808,1.207" style="fill:#8797a3;fill-opacity:1;fill-rule:nonzero;stroke:none" id="path130" inkscape:connector-curvature="0"></path>    <path d="m 261.9763,257.1478 v 7.723 h 1.178 v -1.171 c 0.301,0.548 0.578,0.909 0.834,1.084 0.253,0.175 0.534,0.262 0.839,0.262 0.441,0 0.89,-0.141 1.345,-0.422 l -0.451,-1.214 c -0.32,0.188 -0.639,0.284 -0.959,0.284 -0.286,0 -0.544,-0.087 -0.772,-0.259 -0.227,-0.172 -0.39,-0.411 -0.487,-0.716 -0.145,-0.466 -0.218,-0.975 -0.218,-1.528 v -4.043 z" style="fill:#8797a3;fill-opacity:1;fill-rule:nonzero;stroke:none" id="path134" inkscape:connector-curvature="0"></path>    <path d="m 271.4021,257.1478 v 6.706 h -1.156 v 1.017 h 1.156 v 0.822 c 0,0.519 0.045,0.904 0.138,1.156 0.126,0.34 0.348,0.615 0.665,0.826 0.318,0.211 0.762,0.316 1.334,0.316 0.369,0 0.776,-0.043 1.222,-0.13 l -0.196,-1.142 c -0.271,0.048 -0.528,0.072 -0.771,0.072 -0.397,0 -0.678,-0.084 -0.844,-0.254 -0.164,-0.17 -0.247,-0.487 -0.247,-0.953 v -0.713 h 1.506 v -1.017 h -1.506 v -6.706 z" style="fill:#8797a3;fill-opacity:1;fill-rule:nonzero;stroke:none" id="path138" inkscape:connector-curvature="0"></path>    <path d="m 276.0848,261.0096 c 0,-0.989 0.216,-1.73 0.648,-2.222 0.431,-0.492 0.974,-0.738 1.629,-0.738 0.649,0 1.191,0.247 1.622,0.742 0.431,0.494 0.646,1.248 0.646,2.262 0,0.954 -0.216,1.678 -0.65,2.171 -0.434,0.491 -0.974,0.737 -1.618,0.737 -0.655,0 -1.198,-0.245 -1.629,-0.734 -0.432,-0.49 -0.648,-1.229 -0.648,-2.218 m -1.345,0 c 0,1.43 0.397,2.49 1.193,3.178 0.664,0.572 1.474,0.858 2.429,0.858 1.062,0 1.929,-0.348 2.603,-1.044 0.674,-0.695 1.011,-1.657 1.011,-2.883 0,-0.994 -0.149,-1.776 -0.447,-2.345 -0.298,-0.57 -0.733,-1.013 -1.302,-1.328 -0.569,-0.315 -1.191,-0.472 -1.865,-0.472 -1.082,0 -1.956,0.346 -2.622,1.04 -0.666,0.693 -1,1.692 -1,2.996" style="fill:#8797a3;fill-opacity:1;fill-rule:nonzero;stroke:none" id="path142" inkscape:connector-curvature="0"></path>    <path d="m 283.4962,257.1478 v 7.723 h 1.178 v -1.171 c 0.301,0.548 0.578,0.909 0.833,1.084 0.254,0.175 0.534,0.262 0.839,0.262 0.442,0 0.891,-0.141 1.346,-0.422 l -0.45,-1.214 c -0.321,0.188 -0.641,0.284 -0.961,0.284 -0.286,0 -0.542,-0.087 -0.77,-0.259 -0.229,-0.172 -0.391,-0.411 -0.487,-0.716 -0.146,-0.466 -0.219,-0.975 -0.219,-1.528 v -4.043 z" style="fill:#8797a3;fill-opacity:1;fill-rule:nonzero;stroke:none" id="path146" inkscape:connector-curvature="0"></path>    <path inkscape:connector-curvature="0" id="path148" style="fill:#8797a3;fill-opacity:1;fill-rule:nonzero;stroke:none" d="m 222.653,249.937 h 1.411 v -10.662 h -1.411 z"></path>    <path d="m 226.3844,239.2744 v 7.724 h 1.178 v -1.099 c 0.567,0.848 1.387,1.273 2.458,1.273 0.466,0 0.893,-0.084 1.284,-0.251 0.39,-0.167 0.683,-0.387 0.876,-0.658 0.194,-0.272 0.33,-0.594 0.407,-0.968 0.049,-0.242 0.073,-0.666 0.073,-1.272 v -4.749 h -1.309 v 4.698 c 0,0.534 -0.051,0.932 -0.153,1.197 -0.102,0.264 -0.282,0.474 -0.541,0.632 -0.26,0.158 -0.564,0.236 -0.913,0.236 -0.557,0 -1.04,-0.176 -1.444,-0.53 -0.405,-0.354 -0.607,-1.026 -0.607,-2.014 v -4.219 z" style="fill:#8797a3;fill-opacity:1;fill-rule:nonzero;stroke:none" id="path152" inkscape:connector-curvature="0"></path>    <path d="m 234.9801,239.2744 v 6.706 h -1.156 v 1.018 h 1.156 v 0.821 c 0,0.519 0.047,0.904 0.139,1.157 0.125,0.339 0.347,0.614 0.666,0.825 0.316,0.211 0.762,0.316 1.334,0.316 0.367,0 0.775,-0.043 1.221,-0.13 l -0.196,-1.142 c -0.272,0.048 -0.529,0.073 -0.771,0.073 -0.398,0 -0.679,-0.085 -0.844,-0.255 -0.165,-0.17 -0.247,-0.487 -0.247,-0.953 v -0.712 h 1.506 v -1.018 h -1.506 v -6.706 z" style="fill:#8797a3;fill-opacity:1;fill-rule:nonzero;stroke:none" id="path156" inkscape:connector-curvature="0"></path>    <path d="m 239.664,243.1362 c 0,-0.989 0.215,-1.73 0.647,-2.222 0.432,-0.492 0.975,-0.738 1.629,-0.738 0.65,0 1.19,0.248 1.622,0.742 0.432,0.494 0.647,1.248 0.647,2.262 0,0.954 -0.217,1.678 -0.65,2.171 -0.434,0.492 -0.974,0.738 -1.619,0.738 -0.654,0 -1.197,-0.245 -1.629,-0.735 -0.432,-0.489 -0.647,-1.229 -0.647,-2.218 m -1.345,0 c 0,1.431 0.397,2.49 1.192,3.178 0.664,0.572 1.474,0.858 2.429,0.858 1.062,0 1.93,-0.347 2.604,-1.043 0.673,-0.696 1.011,-1.658 1.011,-2.884 0,-0.994 -0.149,-1.776 -0.447,-2.345 -0.299,-0.57 -0.733,-1.013 -1.302,-1.327 -0.57,-0.316 -1.192,-0.473 -1.866,-0.473 -1.081,0 -1.955,0.346 -2.622,1.04 -0.666,0.693 -0.999,1.692 -0.999,2.996" style="fill:#8797a3;fill-opacity:1;fill-rule:nonzero;stroke:none" id="path160" inkscape:connector-curvature="0"></path>    <path d="m 247.0746,239.2744 v 7.724 h 1.178 v -1.171 c 0.301,0.547 0.579,0.909 0.834,1.084 0.253,0.174 0.534,0.261 0.839,0.261 0.441,0 0.89,-0.141 1.345,-0.422 l -0.45,-1.215 c -0.32,0.19 -0.64,0.285 -0.96,0.285 -0.286,0 -0.543,-0.086 -0.771,-0.258 -0.228,-0.173 -0.391,-0.412 -0.488,-0.717 -0.145,-0.466 -0.218,-0.975 -0.218,-1.527 v -4.044 z" style="fill:#8797a3;fill-opacity:1;fill-rule:nonzero;stroke:none" id="path164" inkscape:connector-curvature="0"></path>    <path d="m 252.0494,239.2744 v 7.724 h 1.171 v -1.084 c 0.243,0.378 0.565,0.682 0.967,0.912 0.403,0.231 0.861,0.346 1.375,0.346 0.572,0 1.041,-0.119 1.407,-0.357 0.366,-0.237 0.624,-0.569 0.775,-0.995 0.611,0.901 1.405,1.352 2.385,1.352 0.766,0 1.355,-0.212 1.767,-0.636 0.413,-0.425 0.618,-1.077 0.618,-1.96 v -5.302 h -1.302 v 4.865 c 0,0.524 -0.042,0.901 -0.126,1.131 -0.086,0.231 -0.24,0.416 -0.463,0.557 -0.223,0.14 -0.485,0.21 -0.785,0.21 -0.543,0 -0.994,-0.18 -1.353,-0.541 -0.359,-0.362 -0.538,-0.94 -0.538,-1.734 v -4.488 h -1.309 v 5.018 c 0,0.582 -0.107,1.018 -0.32,1.309 -0.213,0.291 -0.562,0.436 -1.048,0.436 -0.368,0 -0.708,-0.097 -1.021,-0.29 -0.313,-0.194 -0.54,-0.478 -0.68,-0.851 -0.141,-0.374 -0.211,-0.912 -0.211,-1.615 v -4.007 z" style="fill:#8797a3;fill-opacity:1;fill-rule:nonzero;stroke:none" id="path168" inkscape:connector-curvature="0"></path>    <path d="m 269.3873,243.1509 c -0.475,-0.194 -1.188,-0.359 -2.139,-0.494 -0.537,-0.078 -0.918,-0.165 -1.141,-0.263 -0.223,-0.097 -0.395,-0.238 -0.516,-0.425 -0.121,-0.187 -0.182,-0.394 -0.182,-0.622 0,-0.349 0.132,-0.64 0.396,-0.872 0.264,-0.233 0.651,-0.349 1.16,-0.349 0.504,0 0.953,0.11 1.345,0.331 0.393,0.22 0.681,0.522 0.866,0.905 0.14,0.296 0.211,0.732 0.211,1.309 z m 0.109,-2.923 c -0.485,-0.413 -0.951,-0.703 -1.399,-0.873 -0.45,-0.17 -0.93,-0.255 -1.445,-0.255 -0.848,0 -1.5,0.207 -1.956,0.622 -0.456,0.414 -0.684,0.944 -0.684,1.589 0,0.378 0.087,0.724 0.258,1.036 0.173,0.313 0.399,0.564 0.677,0.753 0.279,0.189 0.593,0.332 0.942,0.429 0.257,0.068 0.644,0.133 1.163,0.197 1.058,0.125 1.835,0.276 2.335,0.45 0.005,0.179 0.007,0.294 0.007,0.342 0,0.534 -0.124,0.909 -0.37,1.127 -0.335,0.296 -0.832,0.444 -1.492,0.444 -0.616,0 -1.07,-0.108 -1.363,-0.324 -0.293,-0.216 -0.51,-0.597 -0.651,-1.145 l -1.28,0.174 c 0.116,0.549 0.308,0.991 0.574,1.328 0.267,0.336 0.653,0.596 1.156,0.778 0.505,0.182 1.089,0.273 1.753,0.273 0.659,0 1.196,-0.078 1.607,-0.233 0.413,-0.155 0.715,-0.351 0.91,-0.586 0.194,-0.235 0.33,-0.532 0.407,-0.891 0.044,-0.223 0.066,-0.625 0.066,-1.207 v -1.745 c 0,-1.217 0.028,-1.987 0.083,-2.309 0.056,-0.323 0.166,-0.632 0.331,-0.927 h -1.367 c -0.136,0.271 -0.223,0.589 -0.262,0.953" style="fill:#8797a3;fill-opacity:1;fill-rule:nonzero;stroke:none" id="path172" inkscape:connector-curvature="0"></path>    <path d="m 275.5984,240.4453 0.189,-1.156 c -0.369,-0.078 -0.699,-0.116 -0.989,-0.116 -0.475,0 -0.843,0.075 -1.106,0.225 -0.262,0.15 -0.446,0.348 -0.552,0.592 -0.107,0.245 -0.161,0.761 -0.161,1.546 v 4.444 h -0.959 v 1.018 h 0.959 v 1.912 l 1.302,0.786 v -2.698 h 1.317 v -1.018 h -1.317 v -4.517 c 0,-0.373 0.023,-0.613 0.069,-0.72 0.047,-0.107 0.122,-0.191 0.226,-0.254 0.104,-0.064 0.253,-0.095 0.447,-0.095 0.145,0 0.337,0.017 0.575,0.051" style="fill:#8797a3;fill-opacity:1;fill-rule:nonzero;stroke:none" id="path176" inkscape:connector-curvature="0"></path>    <path inkscape:connector-curvature="0" id="path178" style="fill:#8797a3;fill-opacity:1;fill-rule:nonzero;stroke:none" d="m 276.886,246.998 h 1.309 v -7.724 h -1.309 z m 0,2.939 h 1.309 v -1.506 h -1.309 z"></path>    <path d="m 281.0453,243.1362 c 0,-0.989 0.216,-1.73 0.647,-2.222 0.432,-0.492 0.975,-0.738 1.629,-0.738 0.65,0 1.19,0.248 1.621,0.742 0.433,0.494 0.648,1.248 0.648,2.262 0,0.954 -0.217,1.678 -0.651,2.171 -0.433,0.492 -0.973,0.738 -1.618,0.738 -0.654,0 -1.197,-0.245 -1.629,-0.735 -0.431,-0.489 -0.647,-1.229 -0.647,-2.218 m -1.345,0 c 0,1.431 0.397,2.49 1.192,3.178 0.664,0.572 1.474,0.858 2.429,0.858 1.062,0 1.93,-0.347 2.604,-1.043 0.674,-0.696 1.011,-1.658 1.011,-2.884 0,-0.994 -0.149,-1.776 -0.447,-2.345 -0.299,-0.57 -0.732,-1.013 -1.302,-1.327 -0.57,-0.316 -1.193,-0.473 -1.866,-0.473 -1.081,0 -1.955,0.346 -2.622,1.04 -0.666,0.693 -0.999,1.692 -0.999,2.996" style="fill:#8797a3;fill-opacity:1;fill-rule:nonzero;stroke:none" id="path182" inkscape:connector-curvature="0"></path>    <path d="m 288.4706,239.2744 v 7.724 h 1.178 v -1.099 c 0.567,0.848 1.387,1.273 2.458,1.273 0.466,0 0.894,-0.084 1.284,-0.251 0.39,-0.167 0.682,-0.387 0.877,-0.658 0.193,-0.272 0.329,-0.594 0.407,-0.968 0.047,-0.242 0.072,-0.666 0.072,-1.272 v -4.749 h -1.309 v 4.698 c 0,0.534 -0.051,0.932 -0.153,1.197 -0.101,0.264 -0.282,0.474 -0.541,0.632 -0.26,0.158 -0.564,0.236 -0.914,0.236 -0.557,0 -1.037,-0.176 -1.443,-0.53 -0.404,-0.354 -0.607,-1.026 -0.607,-2.014 v -4.219 z" style="fill:#8797a3;fill-opacity:1;fill-rule:nonzero;stroke:none" id="path186" inkscape:connector-curvature="0"></path>    <path d="m 221.9333,224.8272 1.331,0.116 c 0.063,-0.533 0.21,-0.97 0.44,-1.312 0.23,-0.342 0.588,-0.619 1.073,-0.829 0.484,-0.211 1.03,-0.317 1.636,-0.317 0.538,0 1.013,0.08 1.425,0.24 0.412,0.16 0.72,0.38 0.92,0.658 0.202,0.279 0.302,0.584 0.302,0.913 0,0.335 -0.097,0.627 -0.291,0.876 -0.193,0.25 -0.514,0.46 -0.959,0.63 -0.287,0.111 -0.92,0.284 -1.899,0.519 -0.979,0.236 -1.666,0.457 -2.058,0.666 -0.509,0.267 -0.888,0.598 -1.138,0.993 -0.25,0.395 -0.374,0.837 -0.374,1.327 0,0.538 0.152,1.041 0.458,1.509 0.305,0.468 0.751,0.823 1.338,1.065 0.586,0.243 1.238,0.364 1.956,0.364 0.79,0 1.487,-0.127 2.091,-0.382 0.604,-0.254 1.067,-0.629 1.392,-1.123 0.325,-0.495 0.5,-1.055 0.524,-1.681 l -1.353,-0.102 c -0.072,0.674 -0.318,1.184 -0.738,1.528 -0.419,0.344 -1.038,0.516 -1.858,0.516 -0.853,0 -1.475,-0.156 -1.866,-0.469 -0.39,-0.313 -0.584,-0.689 -0.584,-1.131 0,-0.383 0.138,-0.698 0.413,-0.945 0.272,-0.247 0.981,-0.501 2.127,-0.76 1.148,-0.259 1.934,-0.486 2.361,-0.68 0.62,-0.286 1.079,-0.648 1.375,-1.087 0.295,-0.439 0.443,-0.945 0.443,-1.517 0,-0.567 -0.163,-1.102 -0.488,-1.603 -0.324,-0.502 -0.792,-0.892 -1.399,-1.171 -0.609,-0.279 -1.294,-0.418 -2.055,-0.418 -0.965,0 -1.773,0.141 -2.426,0.422 -0.651,0.281 -1.163,0.704 -1.534,1.269 -0.371,0.564 -0.566,1.203 -0.585,1.916" style="fill:#8797a3;fill-opacity:1;fill-rule:nonzero;stroke:none" id="path190" inkscape:connector-curvature="0"></path>    <path d="m 232.1217,218.4272 -0.145,1.229 c 0.286,-0.077 0.536,-0.116 0.749,-0.116 0.291,0 0.524,0.048 0.698,0.146 0.175,0.096 0.317,0.232 0.429,0.406 0.083,0.132 0.215,0.456 0.4,0.975 0.025,0.072 0.063,0.179 0.116,0.32 l -2.931,7.738 h 1.411 l 1.607,-4.473 c 0.209,-0.567 0.396,-1.163 0.56,-1.789 0.151,0.601 0.331,1.188 0.539,1.76 l 1.651,4.502 h 1.308 l -2.937,-7.854 c -0.316,-0.849 -0.561,-1.433 -0.735,-1.753 -0.232,-0.431 -0.5,-0.748 -0.8,-0.949 -0.301,-0.201 -0.659,-0.302 -1.076,-0.302 -0.252,0 -0.533,0.054 -0.844,0.16" style="fill:#8797a3;fill-opacity:1;fill-rule:nonzero;stroke:none" id="path194" inkscape:connector-curvature="0"></path>    <path d="m 239.1034,223.7071 1.295,0.204 c 0.073,-0.519 0.275,-0.917 0.607,-1.193 0.332,-0.276 0.796,-0.415 1.393,-0.415 0.601,0 1.047,0.123 1.338,0.368 0.291,0.245 0.437,0.532 0.437,0.861 0,0.296 -0.129,0.529 -0.386,0.699 -0.179,0.116 -0.626,0.264 -1.338,0.443 -0.96,0.243 -1.626,0.452 -1.997,0.629 -0.371,0.178 -0.652,0.422 -0.844,0.735 -0.191,0.313 -0.287,0.658 -0.287,1.036 0,0.344 0.079,0.663 0.237,0.956 0.157,0.294 0.372,0.538 0.644,0.732 0.203,0.15 0.48,0.277 0.832,0.381 0.352,0.105 0.728,0.157 1.131,0.157 0.606,0 1.138,-0.087 1.596,-0.262 0.459,-0.174 0.796,-0.411 1.015,-0.709 0.218,-0.299 0.368,-0.697 0.451,-1.196 l -1.28,-0.175 c -0.058,0.397 -0.227,0.708 -0.505,0.931 -0.279,0.223 -0.673,0.335 -1.183,0.335 -0.601,0 -1.03,-0.1 -1.287,-0.299 -0.257,-0.199 -0.385,-0.431 -0.385,-0.698 0,-0.17 0.053,-0.322 0.16,-0.458 0.106,-0.141 0.274,-0.257 0.502,-0.349 0.131,-0.049 0.516,-0.16 1.156,-0.334 0.926,-0.248 1.572,-0.451 1.938,-0.608 0.366,-0.158 0.654,-0.387 0.862,-0.687 0.209,-0.301 0.313,-0.674 0.313,-1.12 0,-0.437 -0.127,-0.847 -0.382,-1.233 -0.255,-0.385 -0.622,-0.684 -1.102,-0.894 -0.48,-0.211 -1.023,-0.317 -1.629,-0.317 -1.003,0 -1.768,0.208 -2.295,0.625 -0.525,0.418 -0.861,1.035 -1.007,1.855" style="fill:#8797a3;fill-opacity:1;fill-rule:nonzero;stroke:none" id="path198" inkscape:connector-curvature="0"></path>    <path d="m 249.9321,222.5727 0.19,-1.156 c -0.369,-0.078 -0.698,-0.117 -0.99,-0.117 -0.475,0 -0.844,0.076 -1.105,0.225 -0.262,0.151 -0.446,0.348 -0.553,0.594 -0.107,0.244 -0.159,0.76 -0.159,1.545 v 4.444 h -0.961 v 1.017 h 0.961 v 1.913 l 1.301,0.785 v -2.698 h 1.316 v -1.017 h -1.316 v -4.517 c 0,-0.373 0.023,-0.613 0.069,-0.72 0.046,-0.107 0.121,-0.191 0.226,-0.254 0.104,-0.063 0.253,-0.095 0.446,-0.095 0.147,0 0.337,0.017 0.575,0.051" style="fill:#8797a3;fill-opacity:1;fill-rule:nonzero;stroke:none" id="path202" inkscape:connector-curvature="0"></path>    <path d="m 252.2017,226.0052 h 4.313 c -0.059,0.65 -0.223,1.137 -0.495,1.462 -0.417,0.504 -0.958,0.756 -1.622,0.756 -0.601,0 -1.107,-0.201 -1.517,-0.604 -0.409,-0.402 -0.636,-0.94 -0.679,-1.614 m 4.298,-2.116 1.352,-0.167 c -0.213,-0.791 -0.608,-1.404 -1.186,-1.84 -0.576,-0.437 -1.313,-0.655 -2.21,-0.655 -1.13,0 -2.025,0.348 -2.687,1.044 -0.661,0.696 -0.993,1.671 -0.993,2.927 0,1.299 0.335,2.307 1.004,3.025 0.669,0.718 1.537,1.076 2.603,1.076 1.033,0 1.877,-0.351 2.531,-1.054 0.655,-0.703 0.983,-1.692 0.983,-2.967 0,-0.078 -0.003,-0.194 -0.008,-0.349 h -5.76 c 0.049,-0.849 0.288,-1.499 0.72,-1.949 0.431,-0.451 0.97,-0.677 1.614,-0.677 0.48,0 0.89,0.126 1.23,0.379 0.339,0.251 0.608,0.654 0.807,1.207" style="fill:#8797a3;fill-opacity:1;fill-rule:nonzero;stroke:none" id="path206" inkscape:connector-curvature="0"></path>    <path d="m 259.496,221.4018 v 7.723 h 1.171 v -1.083 c 0.242,0.378 0.564,0.682 0.967,0.912 0.402,0.23 0.86,0.346 1.375,0.346 0.572,0 1.041,-0.119 1.407,-0.356 0.365,-0.238 0.624,-0.57 0.774,-0.997 0.611,0.902 1.406,1.353 2.386,1.353 0.766,0 1.355,-0.212 1.767,-0.636 0.412,-0.425 0.618,-1.078 0.618,-1.96 v -5.302 h -1.301 v 4.865 c 0,0.524 -0.043,0.901 -0.128,1.131 -0.084,0.23 -0.238,0.416 -0.461,0.556 -0.224,0.141 -0.485,0.212 -0.786,0.212 -0.543,0 -0.994,-0.181 -1.353,-0.542 -0.359,-0.362 -0.538,-0.94 -0.538,-1.735 v -4.487 h -1.309 v 5.018 c 0,0.582 -0.106,1.018 -0.32,1.309 -0.214,0.291 -0.562,0.437 -1.047,0.437 -0.369,0 -0.709,-0.098 -1.022,-0.291 -0.312,-0.195 -0.539,-0.478 -0.68,-0.851 -0.141,-0.374 -0.211,-0.912 -0.211,-1.615 v -4.007 z" style="fill:#8797a3;fill-opacity:1;fill-rule:nonzero;stroke:none" id="path210" inkscape:connector-curvature="0"></path>    <path d="m 271.3795,223.7071 1.294,0.204 c 0.074,-0.519 0.276,-0.917 0.608,-1.193 0.332,-0.276 0.796,-0.415 1.392,-0.415 0.602,0 1.048,0.123 1.338,0.368 0.292,0.245 0.437,0.532 0.437,0.861 0,0.296 -0.129,0.529 -0.385,0.699 -0.18,0.116 -0.626,0.264 -1.338,0.443 -0.961,0.243 -1.626,0.452 -1.997,0.629 -0.371,0.178 -0.652,0.422 -0.844,0.735 -0.191,0.313 -0.287,0.658 -0.287,1.036 0,0.344 0.079,0.663 0.237,0.956 0.157,0.294 0.372,0.538 0.643,0.732 0.203,0.15 0.481,0.277 0.832,0.381 0.352,0.105 0.729,0.157 1.132,0.157 0.606,0 1.138,-0.087 1.596,-0.262 0.458,-0.174 0.796,-0.411 1.015,-0.709 0.218,-0.299 0.368,-0.697 0.451,-1.196 l -1.28,-0.175 c -0.059,0.397 -0.227,0.708 -0.505,0.931 -0.279,0.223 -0.674,0.335 -1.183,0.335 -0.601,0 -1.03,-0.1 -1.287,-0.299 -0.257,-0.199 -0.385,-0.431 -0.385,-0.698 0,-0.17 0.053,-0.322 0.159,-0.458 0.107,-0.141 0.274,-0.257 0.502,-0.349 0.132,-0.049 0.517,-0.16 1.157,-0.334 0.926,-0.248 1.572,-0.451 1.938,-0.608 0.366,-0.158 0.653,-0.387 0.862,-0.687 0.208,-0.301 0.312,-0.674 0.312,-1.12 0,-0.437 -0.127,-0.847 -0.381,-1.233 -0.255,-0.385 -0.622,-0.684 -1.102,-0.894 -0.48,-0.211 -1.023,-0.317 -1.629,-0.317 -1.004,0 -1.769,0.208 -2.295,0.625 -0.526,0.418 -0.861,1.035 -1.007,1.855" style="fill:#8797a3;fill-opacity:1;fill-rule:nonzero;stroke:none" id="path214" inkscape:connector-curvature="0"></path>    <path inkscape:connector-curvature="0" id="path236" style="fill:#8797a3;fill-opacity:1;fill-rule:evenodd;stroke:none" d="m 123.371,343.606 h 4.544 v 4.544 h -4.544 z"></path>    <path inkscape:connector-curvature="0" id="path238" style="fill:#8797a3;fill-opacity:1;fill-rule:evenodd;stroke:none" d="m 129.809,343.606 h 4.545 v 4.544 h -4.545 z"></path>    <path inkscape:connector-curvature="0" id="path240" style="fill:#8797a3;fill-opacity:1;fill-rule:evenodd;stroke:none" d="m 136.121,350.044 h 4.544 v 4.545 h -4.544 z"></path>    <path inkscape:connector-curvature="0" id="path242" style="fill:#8797a3;fill-opacity:1;fill-rule:evenodd;stroke:none" d="m 161.619,362.793 h 4.545 v 4.545 h -4.545 z"></path>    <path inkscape:connector-curvature="0" id="path244" style="fill:#8797a3;fill-opacity:1;fill-rule:evenodd;stroke:none" d="m 168.057,362.793 h 4.544 v 4.545 h -4.544 z"></path>    <path inkscape:connector-curvature="0" id="path246" style="fill:#8797a3;fill-opacity:1;fill-rule:evenodd;stroke:none" d="m 168.057,356.356 h 4.544 v 4.544 h -4.544 z"></path>    <path inkscape:connector-curvature="0" id="path248" style="fill:#8797a3;fill-opacity:1;fill-rule:evenodd;stroke:none" d="m 168.057,350.044 h 4.544 v 4.545 h -4.544 z"></path>    <path inkscape:connector-curvature="0" id="path250" style="fill:#8797a3;fill-opacity:1;fill-rule:evenodd;stroke:none" d="m 168.057,343.606 h 4.544 v 4.544 h -4.544 z"></path>    <path inkscape:connector-curvature="0" id="path252" style="fill:#8797a3;fill-opacity:1;fill-rule:evenodd;stroke:none" d="m 168.057,337.295 h 4.544 v 4.545 h -4.544 z"></path>    <path inkscape:connector-curvature="0" id="path254" style="fill:#8797a3;fill-opacity:1;fill-rule:evenodd;stroke:none" d="m 168.057,330.857 h 4.544 v 4.544 h -4.544 z"></path>    <path inkscape:connector-curvature="0" id="path256" style="fill:#8797a3;fill-opacity:1;fill-rule:evenodd;stroke:none" d="m 123.371,350.044 h 4.544 v 4.545 h -4.544 z"></path>    <path inkscape:connector-curvature="0" id="path258" style="fill:#8797a3;fill-opacity:1;fill-rule:evenodd;stroke:none" d="m 125.643,358.628 h 2.272 v 2.272 h -2.272 z"></path>    <path inkscape:connector-curvature="0" id="path260" style="fill:#8797a3;fill-opacity:1;fill-rule:evenodd;stroke:none" d="m 123.371,362.793 h 4.544 v 4.545 h -4.544 z"></path>    <path inkscape:connector-curvature="0" id="path262" style="fill:#8797a3;fill-opacity:1;fill-rule:evenodd;stroke:none" d="m 116.933,362.793 h 4.671 v 4.545 h -4.671 z"></path>    <path inkscape:connector-curvature="0" id="path264" style="fill:#8797a3;fill-opacity:1;fill-rule:evenodd;stroke:none" d="m 118.195,357.744 h 3.409 v 3.408 h -3.409 z"></path>    <path inkscape:connector-curvature="0" id="path266" style="fill:#8797a3;fill-opacity:1;fill-rule:evenodd;stroke:none" d="m 114.787,358.628 h 2.272 v 2.272 h -2.272 z"></path>    <path inkscape:connector-curvature="0" id="path268" style="fill:#8797a3;fill-opacity:1;fill-rule:evenodd;stroke:none" d="m 129.809,370.241 h 3.409 v 3.408 h -3.409 z"></path>    <path inkscape:connector-curvature="0" id="path270" style="fill:#8797a3;fill-opacity:1;fill-rule:evenodd;stroke:none" d="m 129.809,362.793 h 4.545 v 4.545 h -4.545 z"></path>    <path inkscape:connector-curvature="0" id="path272" style="fill:#8797a3;fill-opacity:1;fill-rule:evenodd;stroke:none" d="m 129.809,357.239 h 3.534 v 3.661 h -3.534 z"></path>    <path inkscape:connector-curvature="0" id="path274" style="fill:#8797a3;fill-opacity:1;fill-rule:evenodd;stroke:none" d="m 129.809,375.543 h 3.409 v 3.409 h -3.409 z"></path>    <path inkscape:connector-curvature="0" id="path276" style="fill:#8797a3;fill-opacity:1;fill-rule:evenodd;stroke:none" d="m 129.809,388.293 h 3.409 v 3.408 h -3.409 z"></path>    <path inkscape:connector-curvature="0" id="path278" style="fill:#8797a3;fill-opacity:1;fill-rule:evenodd;stroke:none" d="m 123.371,369.105 h 4.544 v 4.544 h -4.544 z"></path>    <path inkscape:connector-curvature="0" id="path280" style="fill:#8797a3;fill-opacity:1;fill-rule:evenodd;stroke:none" d="m 119.332,369.105 h 2.272 v 2.272 h -2.272 z"></path>    <path inkscape:connector-curvature="0" id="path282" style="fill:#8797a3;fill-opacity:1;fill-rule:evenodd;stroke:none" d="m 123.371,375.543 h 4.544 v 4.544 h -4.544 z"></path>    <path inkscape:connector-curvature="0" id="path284" style="fill:#8797a3;fill-opacity:1;fill-rule:evenodd;stroke:none" d="m 110.622,369.105 h 4.545 v 4.544 h -4.545 z"></path>    <path inkscape:connector-curvature="0" id="path286" style="fill:#8797a3;fill-opacity:1;fill-rule:evenodd;stroke:none" d="m 116.933,375.543 h 2.398 v 2.272 h -2.398 z"></path>    <path inkscape:connector-curvature="0" id="path288" style="fill:#8797a3;fill-opacity:1;fill-rule:evenodd;stroke:none" d="m 104.184,369.105 h 4.671 v 4.544 h -4.671 z"></path>    <path inkscape:connector-curvature="0" id="path290" style="fill:#8797a3;fill-opacity:1;fill-rule:evenodd;stroke:none" d="m 110.622,375.543 h 4.545 v 4.544 h -4.545 z"></path>    <path inkscape:connector-curvature="0" id="path292" style="fill:#8797a3;fill-opacity:1;fill-rule:evenodd;stroke:none" d="m 105.32,380.087 h 3.534 v 3.409 h -3.534 z"></path>    <path inkscape:connector-curvature="0" id="path294" style="fill:#8797a3;fill-opacity:1;fill-rule:evenodd;stroke:none" d="m 110.622,426.541 h 4.545 v 4.544 h -4.545 z"></path>    <path inkscape:connector-curvature="0" id="path296" style="fill:#8797a3;fill-opacity:1;fill-rule:evenodd;stroke:none" d="m 110.622,422.375 h 2.272 v 2.272 h -2.272 z"></path>    <path inkscape:connector-curvature="0" id="path298" style="fill:#8797a3;fill-opacity:1;fill-rule:evenodd;stroke:none" d="m 110.622,432.852 h 4.545 v 4.544 h -4.545 z"></path>    <path inkscape:connector-curvature="0" id="path300" style="fill:#8797a3;fill-opacity:1;fill-rule:evenodd;stroke:none" d="m 116.933,426.541 h 4.671 v 4.544 h -4.671 z"></path>    <path inkscape:connector-curvature="0" id="path302" style="fill:#8797a3;fill-opacity:1;fill-rule:evenodd;stroke:none" d="m 116.933,432.852 h 4.671 v 4.544 h -4.671 z"></path>    <path inkscape:connector-curvature="0" id="path304" style="fill:#8797a3;fill-opacity:1;fill-rule:evenodd;stroke:none" d="m 104.184,432.852 h 4.671 v 4.544 h -4.671 z"></path>    <path inkscape:connector-curvature="0" id="path306" style="fill:#8797a3;fill-opacity:1;fill-rule:evenodd;stroke:none" d="m 99.008,432.852 h 3.408 v 3.408 h -3.408 z"></path>    <path inkscape:connector-curvature="0" id="path308" style="fill:#8797a3;fill-opacity:1;fill-rule:evenodd;stroke:none" d="m 102.038,439.29 h 2.272 v 2.272 h -2.272 z"></path>    <path inkscape:connector-curvature="0" id="path310" style="fill:#8797a3;fill-opacity:1;fill-rule:evenodd;stroke:none" d="m 106.582,439.29 h 2.272 v 2.272 h -2.272 z"></path>    <path inkscape:connector-curvature="0" id="path312" style="fill:#8797a3;fill-opacity:1;fill-rule:evenodd;stroke:none" d="m 104.184,426.541 h 4.671 v 4.544 h -4.671 z"></path>    <path inkscape:connector-curvature="0" id="path314" style="fill:#8797a3;fill-opacity:1;fill-rule:evenodd;stroke:none" d="m 105.32,375.543 h 3.534 v 3.409 h -3.534 z"></path>    <path inkscape:connector-curvature="0" id="path316" style="fill:#8797a3;fill-opacity:1;fill-rule:evenodd;stroke:none" d="m 123.371,381.854 h 4.544 v 4.544 h -4.544 z"></path>    <path inkscape:connector-curvature="0" id="path318" style="fill:#8797a3;fill-opacity:1;fill-rule:evenodd;stroke:none" d="m 129.809,384.127 h 2.273 v 2.272 h -2.273 z"></path>    <path inkscape:connector-curvature="0" id="path320" style="fill:#8797a3;fill-opacity:1;fill-rule:evenodd;stroke:none" d="m 118.195,386.021 h 3.409 v 3.408 h -3.409 z"></path>    <path inkscape:connector-curvature="0" id="path322" style="fill:#8797a3;fill-opacity:1;fill-rule:evenodd;stroke:none" d="m 119.332,381.854 h 2.272 v 2.273 h -2.272 z"></path>    <path inkscape:connector-curvature="0" id="path324" style="fill:#8797a3;fill-opacity:1;fill-rule:evenodd;stroke:none" d="m 123.371,388.293 h 4.544 v 4.544 h -4.544 z"></path>    <path inkscape:connector-curvature="0" id="path326" style="fill:#8797a3;fill-opacity:1;fill-rule:evenodd;stroke:none" d="m 123.371,394.604 h 4.544 v 4.544 h -4.544 z"></path>    <path inkscape:connector-curvature="0" id="path328" style="fill:#8797a3;fill-opacity:1;fill-rule:evenodd;stroke:none" d="m 129.809,350.044 h 4.545 v 4.545 h -4.545 z"></path>    <path inkscape:connector-curvature="0" id="path330" style="fill:#8797a3;fill-opacity:1;fill-rule:evenodd;stroke:none" d="m 136.121,356.356 h 4.544 v 4.544 h -4.544 z"></path>    <path inkscape:connector-curvature="0" id="path332" style="fill:#8797a3;fill-opacity:1;fill-rule:evenodd;stroke:none" d="m 155.308,369.105 h 4.544 v 4.544 h -4.544 z"></path>    <path inkscape:connector-curvature="0" id="path334" style="fill:#8797a3;fill-opacity:1;fill-rule:evenodd;stroke:none" d="m 161.619,371.377 h 2.273 v 2.272 h -2.273 z"></path>    <path inkscape:connector-curvature="0" id="path336" style="fill:#8797a3;fill-opacity:1;fill-rule:evenodd;stroke:none" d="m 155.308,375.543 h 4.544 v 4.544 h -4.544 z"></path>    <path inkscape:connector-curvature="0" id="path338" style="fill:#8797a3;fill-opacity:1;fill-rule:evenodd;stroke:none" d="m 155.308,388.293 h 4.544 v 4.544 h -4.544 z"></path>    <path inkscape:connector-curvature="0" id="path340" style="fill:#8797a3;fill-opacity:1;fill-rule:evenodd;stroke:none" d="m 161.619,394.604 h 4.545 v 4.544 h -4.545 z"></path>    <path inkscape:connector-curvature="0" id="path342" style="fill:#8797a3;fill-opacity:1;fill-rule:evenodd;stroke:none" d="m 162.756,389.429 h 3.408 v 3.408 h -3.408 z"></path>    <path inkscape:connector-curvature="0" id="path344" style="fill:#8797a3;fill-opacity:1;fill-rule:evenodd;stroke:none" d="m 168.057,401.042 h 4.544 v 4.545 h -4.544 z"></path>    <path inkscape:connector-curvature="0" id="path346" style="fill:#8797a3;fill-opacity:1;fill-rule:evenodd;stroke:none" d="m 168.057,394.604 h 4.544 v 4.544 h -4.544 z"></path>    <path inkscape:connector-curvature="0" id="path348" style="fill:#8797a3;fill-opacity:1;fill-rule:evenodd;stroke:none" d="m 168.057,388.293 h 4.544 v 4.544 h -4.544 z"></path>    <path inkscape:connector-curvature="0" id="path350" style="fill:#8797a3;fill-opacity:1;fill-rule:evenodd;stroke:none" d="m 168.057,381.854 h 4.544 v 4.544 h -4.544 z"></path>    <path inkscape:connector-curvature="0" id="path352" style="fill:#8797a3;fill-opacity:1;fill-rule:evenodd;stroke:none" d="m 162.756,382.991 h 3.408 v 3.408 h -3.408 z"></path>    <path inkscape:connector-curvature="0" id="path354" style="fill:#8797a3;fill-opacity:1;fill-rule:evenodd;stroke:none" d="m 168.057,375.543 h 4.544 v 4.544 h -4.544 z"></path>    <path inkscape:connector-curvature="0" id="path356" style="fill:#8797a3;fill-opacity:1;fill-rule:evenodd;stroke:none" d="m 174.369,407.353 h 4.544 v 4.544 h -4.544 z"></path>    <path inkscape:connector-curvature="0" id="path358" style="fill:#8797a3;fill-opacity:1;fill-rule:evenodd;stroke:none" d="m 174.369,403.314 h 2.272 v 2.273 h -2.272 z"></path>    <path inkscape:connector-curvature="0" id="path360" style="fill:#8797a3;fill-opacity:1;fill-rule:evenodd;stroke:none" d="m 174.369,394.604 h 3.408 v 3.408 h -3.408 z"></path>    <path inkscape:connector-curvature="0" id="path362" style="fill:#8797a3;fill-opacity:1;fill-rule:evenodd;stroke:none" d="m 174.369,388.293 h 4.544 v 4.544 h -4.544 z"></path>    <path inkscape:connector-curvature="0" id="path364" style="fill:#8797a3;fill-opacity:1;fill-rule:evenodd;stroke:none" d="m 174.369,381.854 h 4.544 v 4.544 h -4.544 z"></path>    <path inkscape:connector-curvature="0" id="path366" style="fill:#8797a3;fill-opacity:1;fill-rule:evenodd;stroke:none" d="m 151.142,390.564 h 2.273 v 2.272 h -2.273 z"></path>    <path inkscape:connector-curvature="0" id="path368" style="fill:#8797a3;fill-opacity:1;fill-rule:evenodd;stroke:none" d="m 155.308,394.604 h 4.544 v 4.544 h -4.544 z"></path>    <path inkscape:connector-curvature="0" id="path370" style="fill:#8797a3;fill-opacity:1;fill-rule:evenodd;stroke:none" d="m 161.619,401.042 h 4.545 v 4.545 h -4.545 z"></path>    <path inkscape:connector-curvature="0" id="path372" style="fill:#8797a3;fill-opacity:1;fill-rule:evenodd;stroke:none" d="m 168.057,407.353 h 4.544 v 4.544 h -4.544 z"></path>    <path inkscape:connector-curvature="0" id="path374" style="fill:#8797a3;fill-opacity:1;fill-rule:evenodd;stroke:none" d="m 174.369,413.791 h 4.544 v 4.545 h -4.544 z"></path>    <path inkscape:connector-curvature="0" id="path376" style="fill:#8797a3;fill-opacity:1;fill-rule:evenodd;stroke:none" d="m 148.87,394.604 h 4.544 v 4.544 h -4.544 z"></path>    <path inkscape:connector-curvature="0" id="path378" style="fill:#8797a3;fill-opacity:1;fill-rule:evenodd;stroke:none" d="m 155.308,401.042 h 4.544 v 4.545 h -4.544 z"></path>    <path inkscape:connector-curvature="0" id="path380" style="fill:#8797a3;fill-opacity:1;fill-rule:evenodd;stroke:none" d="m 161.619,407.353 h 4.545 v 4.544 h -4.545 z"></path>    <path inkscape:connector-curvature="0" id="path382" style="fill:#8797a3;fill-opacity:1;fill-rule:evenodd;stroke:none" d="m 168.057,413.791 h 4.544 v 4.545 h -4.544 z"></path>    <path inkscape:connector-curvature="0" id="path384" style="fill:#8797a3;fill-opacity:1;fill-rule:evenodd;stroke:none" d="m 174.369,420.103 h 4.544 v 4.544 h -4.544 z"></path>    <path inkscape:connector-curvature="0" id="path386" style="fill:#8797a3;fill-opacity:1;fill-rule:evenodd;stroke:none" d="m 148.87,401.042 h 4.544 v 4.545 h -4.544 z"></path>    <path inkscape:connector-curvature="0" id="path388" style="fill:#8797a3;fill-opacity:1;fill-rule:evenodd;stroke:none" d="m 155.308,407.353 h 4.544 v 4.544 h -4.544 z"></path>    <path inkscape:connector-curvature="0" id="path390" style="fill:#8797a3;fill-opacity:1;fill-rule:evenodd;stroke:none" d="m 161.619,413.791 h 4.545 v 4.545 h -4.545 z"></path>    <path inkscape:connector-curvature="0" id="path392" style="fill:#8797a3;fill-opacity:1;fill-rule:evenodd;stroke:none" d="m 168.057,420.103 h 4.544 v 4.544 h -4.544 z"></path>    <path inkscape:connector-curvature="0" id="path394" style="fill:#8797a3;fill-opacity:1;fill-rule:evenodd;stroke:none" d="m 174.369,426.541 h 4.544 v 4.544 h -4.544 z"></path>    <path inkscape:connector-curvature="0" id="path396" style="fill:#8797a3;fill-opacity:1;fill-rule:evenodd;stroke:none" d="m 169.193,426.541 h 3.408 v 3.408 h -3.408 z"></path>    <path inkscape:connector-curvature="0" id="path398" style="fill:#8797a3;fill-opacity:1;fill-rule:evenodd;stroke:none" d="m 174.369,432.852 h 4.544 v 4.544 h -4.544 z"></path>    <path inkscape:connector-curvature="0" id="path400" style="fill:#8797a3;fill-opacity:1;fill-rule:evenodd;stroke:none" d="m 180.807,432.852 h 4.544 v 4.544 h -4.544 z"></path>    <path inkscape:connector-curvature="0" id="path402" style="fill:#8797a3;fill-opacity:1;fill-rule:evenodd;stroke:none" d="m 187.118,439.29 h 4.544 v 4.544 h -4.544 z"></path>    <path inkscape:connector-curvature="0" id="path404" style="fill:#8797a3;fill-opacity:1;fill-rule:evenodd;stroke:none" d="m 193.556,439.29 h 4.545 v 4.544 h -4.545 z"></path>    <path inkscape:connector-curvature="0" id="path406" style="fill:#8797a3;fill-opacity:1;fill-rule:evenodd;stroke:none" d="m 193.556,432.852 h 4.545 v 4.544 h -4.545 z"></path>    <path inkscape:connector-curvature="0" id="path408" style="fill:#8797a3;fill-opacity:1;fill-rule:evenodd;stroke:none" d="m 193.556,426.541 h 4.545 v 4.544 h -4.545 z"></path>    <path inkscape:connector-curvature="0" id="path410" style="fill:#8797a3;fill-opacity:1;fill-rule:evenodd;stroke:none" d="m 193.556,420.103 h 4.545 v 4.544 h -4.545 z"></path>    <path inkscape:connector-curvature="0" id="path412" style="fill:#8797a3;fill-opacity:1;fill-rule:evenodd;stroke:none" d="m 199.867,426.541 h 4.545 v 4.544 h -4.545 z"></path>    <path inkscape:connector-curvature="0" id="path414" style="fill:#8797a3;fill-opacity:1;fill-rule:evenodd;stroke:none" d="m 199.867,432.852 h 4.545 v 4.544 h -4.545 z"></path>    <path inkscape:connector-curvature="0" id="path416" style="fill:#8797a3;fill-opacity:1;fill-rule:evenodd;stroke:none" d="m 206.306,432.852 h 4.544 v 4.544 h -4.544 z"></path>    <path inkscape:connector-curvature="0" id="path418" style="fill:#8797a3;fill-opacity:1;fill-rule:evenodd;stroke:none" d="m 212.617,432.852 h 4.545 v 4.544 h -4.545 z"></path>    <path inkscape:connector-curvature="0" id="path420" style="fill:#8797a3;fill-opacity:1;fill-rule:evenodd;stroke:none" d="m 212.617,428.813 h 2.272 v 2.272 h -2.272 z"></path>    <path inkscape:connector-curvature="0" id="path422" style="fill:#8797a3;fill-opacity:1;fill-rule:evenodd;stroke:none" d="m 208.578,428.813 h 2.272 v 2.272 h -2.272 z"></path>    <path inkscape:connector-curvature="0" id="path424" style="fill:#8797a3;fill-opacity:1;fill-rule:evenodd;stroke:none" d="m 199.867,420.103 h 4.545 v 4.544 h -4.545 z"></path>    <path inkscape:connector-curvature="0" id="path426" style="fill:#8797a3;fill-opacity:1;fill-rule:evenodd;stroke:none" d="m 206.306,420.103 h 4.544 v 4.544 h -4.544 z"></path>    <path inkscape:connector-curvature="0" id="path428" style="fill:#8797a3;fill-opacity:1;fill-rule:evenodd;stroke:none" d="m 212.617,420.103 h 4.545 v 4.544 h -4.545 z"></path>    <path inkscape:connector-curvature="0" id="path430" style="fill:#8797a3;fill-opacity:1;fill-rule:evenodd;stroke:none" d="m 219.055,426.541 h 4.544 v 4.544 h -4.544 z"></path>    <path inkscape:connector-curvature="0" id="path432" style="fill:#8797a3;fill-opacity:1;fill-rule:evenodd;stroke:none" d="m 219.055,420.103 h 4.544 v 4.544 h -4.544 z"></path>    <path inkscape:connector-curvature="0" id="path434" style="fill:#8797a3;fill-opacity:1;fill-rule:evenodd;stroke:none" d="m 225.367,420.103 h 4.544 v 4.544 h -4.544 z"></path>    <path inkscape:connector-curvature="0" id="path436" style="fill:#8797a3;fill-opacity:1;fill-rule:evenodd;stroke:none" d="m 231.804,426.541 h 4.544 v 4.544 h -4.544 z"></path>    <path inkscape:connector-curvature="0" id="path438" style="fill:#8797a3;fill-opacity:1;fill-rule:evenodd;stroke:none" d="m 234.076,432.852 h 2.273 v 2.272 h -2.273 z"></path>    <path inkscape:connector-curvature="0" id="path440" style="fill:#8797a3;fill-opacity:1;fill-rule:evenodd;stroke:none" d="m 225.367,426.541 h 4.544 v 4.544 h -4.544 z"></path>    <path inkscape:connector-curvature="0" id="path442" style="fill:#8797a3;fill-opacity:1;fill-rule:evenodd;stroke:none" d="m 225.367,432.852 h 3.408 v 3.408 h -3.408 z"></path>    <path inkscape:connector-curvature="0" id="path444" style="fill:#8797a3;fill-opacity:1;fill-rule:evenodd;stroke:none" d="m 199.867,413.791 h 4.545 v 4.545 h -4.545 z"></path>    <path inkscape:connector-curvature="0" id="path446" style="fill:#8797a3;fill-opacity:1;fill-rule:evenodd;stroke:none" d="m 206.306,413.791 h 4.544 v 4.545 h -4.544 z"></path>    <path inkscape:connector-curvature="0" id="path448" style="fill:#8797a3;fill-opacity:1;fill-rule:evenodd;stroke:none" d="m 212.617,413.791 h 4.545 v 4.545 h -4.545 z"></path>    <path inkscape:connector-curvature="0" id="path450" style="fill:#8797a3;fill-opacity:1;fill-rule:evenodd;stroke:none" d="m 219.055,413.791 h 4.544 v 4.545 h -4.544 z"></path>    <path inkscape:connector-curvature="0" id="path452" style="fill:#8797a3;fill-opacity:1;fill-rule:evenodd;stroke:none" d="m 225.367,413.791 h 4.544 v 4.545 h -4.544 z"></path>    <path inkscape:connector-curvature="0" id="path454" style="fill:#8797a3;fill-opacity:1;fill-rule:evenodd;stroke:none" d="m 231.804,413.791 h 4.544 v 4.545 h -4.544 z"></path>    <path inkscape:connector-curvature="0" id="path456" style="fill:#8797a3;fill-opacity:1;fill-rule:evenodd;stroke:none" d="m 199.867,407.353 h 4.545 v 4.544 h -4.545 z"></path>    <path inkscape:connector-curvature="0" id="path458" style="fill:#8797a3;fill-opacity:1;fill-rule:evenodd;stroke:none" d="m 206.306,407.353 h 4.544 v 4.544 h -4.544 z"></path>    <path inkscape:connector-curvature="0" id="path460" style="fill:#8797a3;fill-opacity:1;fill-rule:evenodd;stroke:none" d="m 212.617,407.353 h 4.545 v 4.544 h -4.545 z"></path>    <path inkscape:connector-curvature="0" id="path462" style="fill:#8797a3;fill-opacity:1;fill-rule:evenodd;stroke:none" d="m 219.055,407.353 h 4.544 v 4.544 h -4.544 z"></path>    <path inkscape:connector-curvature="0" id="path464" style="fill:#8797a3;fill-opacity:1;fill-rule:evenodd;stroke:none" d="m 225.367,407.353 h 4.544 v 4.544 h -4.544 z"></path>    <path inkscape:connector-curvature="0" id="path466" style="fill:#8797a3;fill-opacity:1;fill-rule:evenodd;stroke:none" d="m 231.804,407.353 h 4.544 v 4.544 h -4.544 z"></path>    <path inkscape:connector-curvature="0" id="path468" style="fill:#8797a3;fill-opacity:1;fill-rule:evenodd;stroke:none" d="m 199.867,401.042 h 4.545 v 4.545 h -4.545 z"></path>    <path inkscape:connector-curvature="0" id="path470" style="fill:#8797a3;fill-opacity:1;fill-rule:evenodd;stroke:none" d="m 206.306,401.042 h 4.544 v 4.545 h -4.544 z"></path>    <path inkscape:connector-curvature="0" id="path472" style="fill:#8797a3;fill-opacity:1;fill-rule:evenodd;stroke:none" d="m 212.617,401.042 h 4.545 v 4.545 h -4.545 z"></path>    <path inkscape:connector-curvature="0" id="path474" style="fill:#8797a3;fill-opacity:1;fill-rule:evenodd;stroke:none" d="m 219.055,401.042 h 4.544 v 4.545 h -4.544 z"></path>    <path inkscape:connector-curvature="0" id="path476" style="fill:#8797a3;fill-opacity:1;fill-rule:evenodd;stroke:none" d="m 238.116,401.042 h 4.544 v 4.545 h -4.544 z"></path>    <path inkscape:connector-curvature="0" id="path478" style="fill:#8797a3;fill-opacity:1;fill-rule:evenodd;stroke:none" d="m 244.554,408.49 h 3.408 v 3.408 h -3.408 z"></path>    <path inkscape:connector-curvature="0" id="path480" style="fill:#8797a3;fill-opacity:1;fill-rule:evenodd;stroke:none" d="m 199.867,394.604 h 4.545 v 4.544 h -4.545 z"></path>    <path inkscape:connector-curvature="0" id="path482" style="fill:#8797a3;fill-opacity:1;fill-rule:evenodd;stroke:none" d="m 193.556,388.293 h 4.545 v 4.544 h -4.545 z"></path>    <path inkscape:connector-curvature="0" id="path484" style="fill:#8797a3;fill-opacity:1;fill-rule:evenodd;stroke:none" d="m 188.254,389.429 h 3.408 v 3.408 h -3.408 z"></path>    <path inkscape:connector-curvature="0" id="path486" style="fill:#8797a3;fill-opacity:1;fill-rule:evenodd;stroke:none" d="m 187.118,381.854 h 4.544 v 4.544 h -4.544 z"></path>    <path inkscape:connector-curvature="0" id="path488" style="fill:#8797a3;fill-opacity:1;fill-rule:evenodd;stroke:none" d="m 183.078,375.543 h 2.273 v 2.272 h -2.273 z"></path>    <path inkscape:connector-curvature="0" id="path490" style="fill:#8797a3;fill-opacity:1;fill-rule:evenodd;stroke:none" d="m 206.306,394.604 h 4.544 v 4.544 h -4.544 z"></path>    <path inkscape:connector-curvature="0" id="path492" style="fill:#8797a3;fill-opacity:1;fill-rule:evenodd;stroke:none" d="m 212.617,394.604 h 4.545 v 4.544 h -4.545 z"></path>    <path inkscape:connector-curvature="0" id="path494" style="fill:#8797a3;fill-opacity:1;fill-rule:evenodd;stroke:none" d="m 219.055,394.604 h 4.544 v 4.544 h -4.544 z"></path>    <path inkscape:connector-curvature="0" id="path496" style="fill:#8797a3;fill-opacity:1;fill-rule:evenodd;stroke:none" d="m 225.367,394.604 h 4.544 v 4.544 h -4.544 z"></path>    <path inkscape:connector-curvature="0" id="path498" style="fill:#8797a3;fill-opacity:1;fill-rule:evenodd;stroke:none" d="m 231.804,394.604 h 4.544 v 4.544 h -4.544 z"></path>    <path inkscape:connector-curvature="0" id="path500" style="fill:#8797a3;fill-opacity:1;fill-rule:evenodd;stroke:none" d="m 199.867,388.293 h 4.545 v 4.544 h -4.545 z"></path>    <path inkscape:connector-curvature="0" id="path502" style="fill:#8797a3;fill-opacity:1;fill-rule:evenodd;stroke:none" d="m 193.556,381.854 h 4.545 v 4.544 h -4.545 z"></path>    <path inkscape:connector-curvature="0" id="path504" style="fill:#8797a3;fill-opacity:1;fill-rule:evenodd;stroke:none" d="m 187.118,375.543 h 4.544 v 4.544 h -4.544 z"></path>    <path inkscape:connector-curvature="0" id="path506" style="fill:#8797a3;fill-opacity:1;fill-rule:evenodd;stroke:none" d="m 206.306,388.293 h 4.544 v 4.544 h -4.544 z"></path>    <path inkscape:connector-curvature="0" id="path508" style="fill:#8797a3;fill-opacity:1;fill-rule:evenodd;stroke:none" d="m 212.617,388.293 h 4.545 v 4.544 h -4.545 z"></path>    <path inkscape:connector-curvature="0" id="path510" style="fill:#8797a3;fill-opacity:1;fill-rule:evenodd;stroke:none" d="m 219.055,388.293 h 4.544 v 4.544 h -4.544 z"></path>    <path inkscape:connector-curvature="0" id="path512" style="fill:#8797a3;fill-opacity:1;fill-rule:evenodd;stroke:none" d="m 225.367,388.293 h 4.544 v 4.544 h -4.544 z"></path>    <path inkscape:connector-curvature="0" id="path514" style="fill:#8797a3;fill-opacity:1;fill-rule:evenodd;stroke:none" d="m 238.116,388.293 h 4.544 v 4.544 h -4.544 z"></path>    <path inkscape:connector-curvature="0" id="path516" style="fill:#8797a3;fill-opacity:1;fill-rule:evenodd;stroke:none" d="m 244.554,388.293 h 4.545 v 4.544 h -4.545 z"></path>    <path inkscape:connector-curvature="0" id="path518" style="fill:#8797a3;fill-opacity:1;fill-rule:evenodd;stroke:none" d="m 199.867,381.854 h 4.545 v 4.544 h -4.545 z"></path>    <path inkscape:connector-curvature="0" id="path520" style="fill:#8797a3;fill-opacity:1;fill-rule:evenodd;stroke:none" d="m 193.556,375.543 h 4.545 v 4.544 h -4.545 z"></path>    <path inkscape:connector-curvature="0" id="path522" style="fill:#8797a3;fill-opacity:1;fill-rule:evenodd;stroke:none" d="m 187.118,369.105 h 4.544 v 4.544 h -4.544 z"></path>    <path inkscape:connector-curvature="0" id="path524" style="fill:#8797a3;fill-opacity:1;fill-rule:evenodd;stroke:none" d="m 189.39,365.066 h 2.272 v 2.272 h -2.272 z"></path>    <path inkscape:connector-curvature="0" id="path526" style="fill:#8797a3;fill-opacity:1;fill-rule:evenodd;stroke:none" d="m 181.943,369.105 h 3.408 v 3.408 h -3.408 z"></path>    <path inkscape:connector-curvature="0" id="path528" style="fill:#8797a3;fill-opacity:1;fill-rule:evenodd;stroke:none" d="m 206.306,381.854 h 4.544 v 4.544 h -4.544 z"></path>    <path inkscape:connector-curvature="0" id="path530" style="fill:#8797a3;fill-opacity:1;fill-rule:evenodd;stroke:none" d="m 212.617,381.854 h 4.545 v 4.544 h -4.545 z"></path>    <path inkscape:connector-curvature="0" id="path532" style="fill:#8797a3;fill-opacity:1;fill-rule:evenodd;stroke:none" d="m 219.055,381.854 h 4.544 v 4.544 h -4.544 z"></path>    <path inkscape:connector-curvature="0" id="path534" style="fill:#8797a3;fill-opacity:1;fill-rule:evenodd;stroke:none" d="m 225.367,381.854 h 4.544 v 4.544 h -4.544 z"></path>    <path inkscape:connector-curvature="0" id="path536" style="fill:#8797a3;fill-opacity:1;fill-rule:evenodd;stroke:none" d="m 199.867,375.543 h 4.545 v 4.544 h -4.545 z"></path>    <path inkscape:connector-curvature="0" id="path538" style="fill:#8797a3;fill-opacity:1;fill-rule:evenodd;stroke:none" d="m 193.556,369.105 h 4.545 v 4.544 h -4.545 z"></path>    <path inkscape:connector-curvature="0" id="path540" style="fill:#8797a3;fill-opacity:1;fill-rule:evenodd;stroke:none" d="m 193.556,365.066 h 2.272 v 2.272 h -2.272 z"></path>    <path inkscape:connector-curvature="0" id="path542" style="fill:#8797a3;fill-opacity:1;fill-rule:evenodd;stroke:none" d="m 180.807,318.107 h 4.544 v 4.545 h -4.544 z"></path>    <path inkscape:connector-curvature="0" id="path544" style="fill:#8797a3;fill-opacity:1;fill-rule:evenodd;stroke:none" d="m 174.369,362.793 h 4.544 v 4.545 h -4.544 z"></path>    <path inkscape:connector-curvature="0" id="path546" style="fill:#8797a3;fill-opacity:1;fill-rule:evenodd;stroke:none" d="m 180.807,363.677 h 3.661 v 3.661 h -3.661 z"></path>    <path inkscape:connector-curvature="0" id="path548" style="fill:#8797a3;fill-opacity:1;fill-rule:evenodd;stroke:none" d="m 174.369,356.356 h 4.544 v 4.544 h -4.544 z"></path>    <path inkscape:connector-curvature="0" id="path550" style="fill:#8797a3;fill-opacity:1;fill-rule:evenodd;stroke:none" d="m 174.369,350.044 h 4.544 v 4.545 h -4.544 z"></path>    <path inkscape:connector-curvature="0" id="path552" style="fill:#8797a3;fill-opacity:1;fill-rule:evenodd;stroke:none" d="m 174.369,343.606 h 4.544 v 4.544 h -4.544 z"></path>    <path inkscape:connector-curvature="0" id="path554" style="fill:#8797a3;fill-opacity:1;fill-rule:evenodd;stroke:none" d="m 174.369,337.295 h 4.544 v 4.545 h -4.544 z"></path>    <path inkscape:connector-curvature="0" id="path556" style="fill:#8797a3;fill-opacity:1;fill-rule:evenodd;stroke:none" d="m 174.369,330.857 h 4.544 v 4.544 h -4.544 z"></path>    <path inkscape:connector-curvature="0" id="path558" style="fill:#8797a3;fill-opacity:1;fill-rule:evenodd;stroke:none" d="m 174.369,324.545 h 4.544 v 4.545 h -4.544 z"></path>    <path inkscape:connector-curvature="0" id="path560" style="fill:#8797a3;fill-opacity:1;fill-rule:evenodd;stroke:none" d="m 175.505,319.244 h 3.408 v 3.408 h -3.408 z"></path>    <path inkscape:connector-curvature="0" id="path562" style="fill:#8797a3;fill-opacity:1;fill-rule:evenodd;stroke:none" d="m 170.329,326.818 h 2.272 v 2.273 h -2.272 z"></path>    <path inkscape:connector-curvature="0" id="path564" style="fill:#8797a3;fill-opacity:1;fill-rule:evenodd;stroke:none" d="m 206.306,375.543 h 4.544 v 4.544 h -4.544 z"></path>    <path inkscape:connector-curvature="0" id="path566" style="fill:#8797a3;fill-opacity:1;fill-rule:evenodd;stroke:none" d="m 212.617,375.543 h 4.545 v 4.544 h -4.545 z"></path>    <path inkscape:connector-curvature="0" id="path568" style="fill:#8797a3;fill-opacity:1;fill-rule:evenodd;stroke:none" d="m 219.055,375.543 h 4.544 v 4.544 h -4.544 z"></path>    <path inkscape:connector-curvature="0" id="path570" style="fill:#8797a3;fill-opacity:1;fill-rule:evenodd;stroke:none" d="m 225.367,375.543 h 4.544 v 4.544 h -4.544 z"></path>    <path inkscape:connector-curvature="0" id="path572" style="fill:#8797a3;fill-opacity:1;fill-rule:evenodd;stroke:none" d="m 231.804,375.543 h 4.544 v 4.544 h -4.544 z"></path>    <path inkscape:connector-curvature="0" id="path574" style="fill:#8797a3;fill-opacity:1;fill-rule:evenodd;stroke:none" d="m 244.554,375.543 h 4.545 v 4.544 h -4.545 z"></path>    <path inkscape:connector-curvature="0" id="path576" style="fill:#8797a3;fill-opacity:1;fill-rule:evenodd;stroke:none" d="m 199.867,369.105 h 4.545 v 4.544 h -4.545 z"></path>    <path inkscape:connector-curvature="0" id="path578" style="fill:#8797a3;fill-opacity:1;fill-rule:evenodd;stroke:none" d="m 206.306,369.105 h 4.544 v 4.544 h -4.544 z"></path>    <path inkscape:connector-curvature="0" id="path580" style="fill:#8797a3;fill-opacity:1;fill-rule:evenodd;stroke:none" d="m 212.617,369.105 h 4.545 v 4.544 h -4.545 z"></path>    <path inkscape:connector-curvature="0" id="path582" style="fill:#8797a3;fill-opacity:1;fill-rule:evenodd;stroke:none" d="m 219.055,369.105 h 4.544 v 4.544 h -4.544 z"></path>    <path inkscape:connector-curvature="0" id="path584" style="fill:#8797a3;fill-opacity:1;fill-rule:evenodd;stroke:none" d="m 225.367,369.105 h 4.544 v 4.544 h -4.544 z"></path>    <path inkscape:connector-curvature="0" id="path586" style="fill:#8797a3;fill-opacity:1;fill-rule:evenodd;stroke:none" d="m 231.804,369.105 h 4.544 v 4.544 h -4.544 z"></path>    <path inkscape:connector-curvature="0" id="path588" style="fill:#8797a3;fill-opacity:1;fill-rule:evenodd;stroke:none" d="m 187.118,311.669 h 4.544 v 4.671 h -4.544 z"></path>    <path inkscape:connector-curvature="0" id="path590" style="fill:#8797a3;fill-opacity:1;fill-rule:evenodd;stroke:none" d="m 225.367,320.38 h 2.272 v 2.272 h -2.272 z"></path>    <path inkscape:connector-curvature="0" id="path592" style="fill:#8797a3;fill-opacity:1;fill-rule:evenodd;stroke:none" d="m 193.556,311.669 h 4.545 v 4.671 h -4.545 z"></path>    <path inkscape:connector-curvature="0" id="path594" style="fill:#8797a3;fill-opacity:1;fill-rule:evenodd;stroke:none" d="m 187.118,305.358 h 4.544 v 4.545 h -4.544 z"></path>    <path inkscape:connector-curvature="0" id="path596" style="fill:#8797a3;fill-opacity:1;fill-rule:evenodd;stroke:none" d="m 206.306,363.93 h 3.408 v 3.408 h -3.408 z"></path>    <path inkscape:connector-curvature="0" id="path598" style="fill:#8797a3;fill-opacity:1;fill-rule:evenodd;stroke:none" d="m 219.055,318.107 h 4.544 v 4.545 h -4.544 z"></path>    <path inkscape:connector-curvature="0" id="path600" style="fill:#8797a3;fill-opacity:1;fill-rule:evenodd;stroke:none" d="m 213.753,318.107 h 3.409 v 3.408 h -3.409 z"></path>    <path inkscape:connector-curvature="0" id="path602" style="fill:#8797a3;fill-opacity:1;fill-rule:evenodd;stroke:none" d="m 199.867,311.669 h 4.545 v 4.671 h -4.545 z"></path>    <path inkscape:connector-curvature="0" id="path604" style="fill:#8797a3;fill-opacity:1;fill-rule:evenodd;stroke:none" d="m 193.556,305.358 h 4.545 v 4.545 h -4.545 z"></path>    <path inkscape:connector-curvature="0" id="path606" style="fill:#8797a3;fill-opacity:1;fill-rule:evenodd;stroke:none" d="m 193.556,298.92 h 4.545 v 4.671 h -4.545 z"></path>    <path inkscape:connector-curvature="0" id="path608" style="fill:#8797a3;fill-opacity:1;fill-rule:evenodd;stroke:none" d="m 193.556,292.609 h 4.545 v 4.544 h -4.545 z"></path>    <path inkscape:connector-curvature="0" id="path610" style="fill:#8797a3;fill-opacity:1;fill-rule:evenodd;stroke:none" d="m 199.867,294.88 h 2.273 v 2.273 h -2.273 z"></path>    <path inkscape:connector-curvature="0" id="path612" style="fill:#8797a3;fill-opacity:1;fill-rule:evenodd;stroke:none" d="m 199.867,298.92 h 4.545 v 4.671 h -4.545 z"></path>    <path inkscape:connector-curvature="0" id="path614" style="fill:#8797a3;fill-opacity:1;fill-rule:evenodd;stroke:none" d="m 199.867,305.358 h 2.273 v 2.273 h -2.273 z"></path>    <path inkscape:connector-curvature="0" id="path616" style="fill:#8797a3;fill-opacity:1;fill-rule:evenodd;stroke:none" d="m 189.39,301.192 h 2.272 v 2.399 h -2.272 z"></path>    <path inkscape:connector-curvature="0" id="path618" style="fill:#8797a3;fill-opacity:1;fill-rule:evenodd;stroke:none" d="m 206.306,314.068 h 2.272 v 2.273 h -2.272 z"></path>    <path inkscape:connector-curvature="0" id="path620" style="fill:#8797a3;fill-opacity:1;fill-rule:evenodd;stroke:none" d="m 193.556,413.791 h 4.545 v 4.545 h -4.545 z"></path>    <path inkscape:connector-curvature="0" id="path622" style="fill:#8797a3;fill-opacity:1;fill-rule:evenodd;stroke:none" d="m 193.556,407.353 h 4.545 v 4.544 h -4.545 z"></path>    <path inkscape:connector-curvature="0" id="path624" style="fill:#8797a3;fill-opacity:1;fill-rule:evenodd;stroke:none" d="m 193.556,401.042 h 4.545 v 4.545 h -4.545 z"></path>    <path inkscape:connector-curvature="0" id="path626" style="fill:#8797a3;fill-opacity:1;fill-rule:evenodd;stroke:none" d="m 193.556,396.876 h 2.272 v 2.272 h -2.272 z"></path>    <path inkscape:connector-curvature="0" id="path628" style="fill:#8797a3;fill-opacity:1;fill-rule:evenodd;stroke:none" d="m 187.118,401.042 h 4.544 v 4.545 h -4.544 z"></path>    <path inkscape:connector-curvature="0" id="path630" style="fill:#8797a3;fill-opacity:1;fill-rule:evenodd;stroke:none" d="m 184.846,396.876 h 2.272 v 2.272 h -2.272 z"></path>    <path inkscape:connector-curvature="0" id="path632" style="fill:#8797a3;fill-opacity:1;fill-rule:evenodd;stroke:none" d="m 188.254,395.74 h 3.408 v 3.409 h -3.408 z"></path>    <path inkscape:connector-curvature="0" id="path634" style="fill:#8797a3;fill-opacity:1;fill-rule:evenodd;stroke:none" d="m 187.118,407.353 h 4.544 v 4.544 h -4.544 z"></path>    <path inkscape:connector-curvature="0" id="path636" style="fill:#8797a3;fill-opacity:1;fill-rule:evenodd;stroke:none" d="m 188.254,413.791 h 3.408 v 3.408 h -3.408 z"></path>    <path inkscape:connector-curvature="0" id="path638" style="fill:#8797a3;fill-opacity:1;fill-rule:evenodd;stroke:none" d="m 187.118,445.602 h 2.272 v 2.272 h -2.272 z"></path>    <path inkscape:connector-curvature="0" id="path640" style="fill:#8797a3;fill-opacity:1;fill-rule:evenodd;stroke:none" d="m 187.118,432.852 h 4.544 v 4.544 h -4.544 z"></path>    <path inkscape:connector-curvature="0" id="path642" style="fill:#8797a3;fill-opacity:1;fill-rule:evenodd;stroke:none" d="m 187.118,426.541 h 4.544 v 4.544 h -4.544 z"></path>    <path inkscape:connector-curvature="0" id="path644" style="fill:#8797a3;fill-opacity:1;fill-rule:evenodd;stroke:none" d="m 187.118,422.375 h 2.272 v 2.272 h -2.272 z"></path>    <path inkscape:connector-curvature="0" id="path646" style="fill:#8797a3;fill-opacity:1;fill-rule:evenodd;stroke:none" d="m 180.807,426.541 h 4.544 v 4.544 h -4.544 z"></path>    <path inkscape:connector-curvature="0" id="path648" style="fill:#8797a3;fill-opacity:1;fill-rule:evenodd;stroke:none" d="m 180.807,420.103 h 4.544 v 4.544 h -4.544 z"></path>    <path inkscape:connector-curvature="0" id="path650" style="fill:#8797a3;fill-opacity:1;fill-rule:evenodd;stroke:none" d="m 180.807,414.927 h 3.408 v 3.408 h -3.408 z"></path>    <path inkscape:connector-curvature="0" id="path652" style="fill:#8797a3;fill-opacity:1;fill-rule:evenodd;stroke:none" d="m 180.807,439.29 h 4.544 v 4.544 h -4.544 z"></path>    <path inkscape:connector-curvature="0" id="path654" style="fill:#8797a3;fill-opacity:1;fill-rule:evenodd;stroke:none" d="m 176.641,439.29 h 2.272 v 2.272 h -2.272 z"></path>    <path inkscape:connector-curvature="0" id="path656" style="fill:#8797a3;fill-opacity:1;fill-rule:evenodd;stroke:none" d="m 169.193,432.852 h 3.408 v 3.408 h -3.408 z"></path>    <path inkscape:connector-curvature="0" id="path658" style="fill:#8797a3;fill-opacity:1;fill-rule:evenodd;stroke:none" d="m 151.142,407.353 h 2.273 v 2.272 h -2.273 z"></path>    <path inkscape:connector-curvature="0" id="path660" style="fill:#8797a3;fill-opacity:1;fill-rule:evenodd;stroke:none" d="m 161.619,375.543 h 2.273 v 2.272 h -2.273 z"></path>    <path inkscape:connector-curvature="0" id="path662" style="fill:#8797a3;fill-opacity:1;fill-rule:evenodd;stroke:none" d="m 157.58,381.854 h 2.272 v 2.273 h -2.272 z"></path>    <path inkscape:connector-curvature="0" id="path664" style="fill:#8797a3;fill-opacity:1;fill-rule:evenodd;stroke:none" d="m 118.7,344.616 h 3.409 v 3.409 H 118.7 Z"></path>    <path inkscape:connector-curvature="0" id="path666" style="fill:#8797a3;fill-opacity:1;fill-rule:evenodd;stroke:none" d="m 115.418,350.044 h 3.408 v 3.408 h -3.408 z"></path>    <path inkscape:connector-curvature="0" id="path668" style="fill:#8797a3;fill-opacity:1;fill-rule:evenodd;stroke:none" d="m 119.963,350.044 h 2.272 v 2.273 h -2.272 z"></path>    <path inkscape:connector-curvature="0" id="path670" style="fill:#8797a3;fill-opacity:1;fill-rule:evenodd;stroke:none" d="m 119.71,341.334 h 2.272 v 2.273 h -2.272 z"></path>    <path inkscape:connector-curvature="0" id="path672" style="fill:#8797a3;fill-opacity:1;fill-rule:evenodd;stroke:none" d="m 123.371,337.295 h 4.544 v 4.545 h -4.544 z"></path>    <path inkscape:connector-curvature="0" id="path674" style="fill:#8797a3;fill-opacity:1;fill-rule:evenodd;stroke:none" d="m 129.809,337.295 h 4.545 v 4.545 h -4.545 z"></path>    <path inkscape:connector-curvature="0" id="path676" style="fill:#8797a3;fill-opacity:1;fill-rule:evenodd;stroke:none" d="m 136.121,343.606 h 4.544 v 4.544 h -4.544 z"></path>    <path inkscape:connector-curvature="0" id="path678" style="fill:#8797a3;fill-opacity:1;fill-rule:evenodd;stroke:none" d="m 142.558,343.606 h 4.544 v 4.544 h -4.544 z"></path>    <path inkscape:connector-curvature="0" id="path680" style="fill:#8797a3;fill-opacity:1;fill-rule:evenodd;stroke:none" d="m 161.619,356.356 h 4.545 v 4.544 h -4.545 z"></path>    <path inkscape:connector-curvature="0" id="path682" style="fill:#8797a3;fill-opacity:1;fill-rule:evenodd;stroke:none" d="m 123.371,330.857 h 4.544 v 4.544 h -4.544 z"></path>    <path inkscape:connector-curvature="0" id="path684" style="fill:#8797a3;fill-opacity:1;fill-rule:evenodd;stroke:none" d="m 129.809,330.857 h 4.545 v 4.544 h -4.545 z"></path>    <path inkscape:connector-curvature="0" id="path686" style="fill:#8797a3;fill-opacity:1;fill-rule:evenodd;stroke:none" d="m 136.121,337.295 h 4.544 v 4.545 h -4.544 z"></path>    <path inkscape:connector-curvature="0" id="path688" style="fill:#8797a3;fill-opacity:1;fill-rule:evenodd;stroke:none" d="m 142.558,337.295 h 4.544 v 4.545 h -4.544 z"></path>    <path inkscape:connector-curvature="0" id="path690" style="fill:#8797a3;fill-opacity:1;fill-rule:evenodd;stroke:none" d="m 148.87,343.606 h 4.544 v 4.544 h -4.544 z"></path>    <path inkscape:connector-curvature="0" id="path692" style="fill:#8797a3;fill-opacity:1;fill-rule:evenodd;stroke:none" d="m 161.619,350.044 h 4.545 v 4.545 h -4.545 z"></path>    <path inkscape:connector-curvature="0" id="path242-5" style="fill:#8797a3;fill-opacity:1;fill-rule:evenodd;stroke:none" d="m 142.5585,362.7932 h 4.545 v 4.545 h -4.545 z"></path>    <path inkscape:connector-curvature="0" id="path244-7" style="fill:#8797a3;fill-opacity:1;fill-rule:evenodd;stroke:none" d="m 148.87,362.7932 h 4.544 v 4.545 h -4.544 z"></path>    <path inkscape:connector-curvature="0" id="path246-9" style="fill:#8797a3;fill-opacity:1;fill-rule:evenodd;stroke:none" d="m 148.87,356.3562 h 4.544 v 4.544 h -4.544 z"></path>    <path inkscape:connector-curvature="0" id="path248-4" style="fill:#8797a3;fill-opacity:1;fill-rule:evenodd;stroke:none" d="m 148.87,350.0442 h 4.544 v 4.545 h -4.544 z"></path>    <path inkscape:connector-curvature="0" id="path544-9" style="fill:#8797a3;fill-opacity:1;fill-rule:evenodd;stroke:none" d="m 155.3085,362.7932 h 4.544 v 4.545 h -4.544 z"></path>    <path inkscape:connector-curvature="0" id="path548-2" style="fill:#8797a3;fill-opacity:1;fill-rule:evenodd;stroke:none" d="m 155.3085,356.3562 h 4.544 v 4.544 h -4.544 z"></path>    <path inkscape:connector-curvature="0" id="path550-5" style="fill:#8797a3;fill-opacity:1;fill-rule:evenodd;stroke:none" d="m 155.3085,350.0442 h 4.544 v 4.545 h -4.544 z"></path>    <path inkscape:connector-curvature="0" id="path680-7" style="fill:#8797a3;fill-opacity:1;fill-rule:evenodd;stroke:none" d="m 142.5585,356.3562 h 4.545 v 4.544 h -4.545 z"></path>    <path inkscape:connector-curvature="0" id="path692-4" style="fill:#8797a3;fill-opacity:1;fill-rule:evenodd;stroke:none" d="m 142.5585,350.0442 h 4.545 v 4.545 h -4.545 z"></path>    <path inkscape:connector-curvature="0" id="path694" style="fill:#8797a3;fill-opacity:1;fill-rule:evenodd;stroke:none" d="m 123.371,324.545 h 4.544 v 4.545 h -4.544 z"></path>    <path inkscape:connector-curvature="0" id="path696" style="fill:#8797a3;fill-opacity:1;fill-rule:evenodd;stroke:none" d="m 129.809,324.545 h 4.545 v 4.545 h -4.545 z"></path>    <path inkscape:connector-curvature="0" id="path698" style="fill:#8797a3;fill-opacity:1;fill-rule:evenodd;stroke:none" d="m 129.809,305.358 h 4.545 v 4.545 h -4.545 z"></path>    <path inkscape:connector-curvature="0" id="path700" style="fill:#8797a3;fill-opacity:1;fill-rule:evenodd;stroke:none" d="m 136.121,330.857 h 4.544 v 4.544 h -4.544 z"></path>    <path inkscape:connector-curvature="0" id="path702" style="fill:#8797a3;fill-opacity:1;fill-rule:evenodd;stroke:none" d="m 142.558,330.857 h 4.544 v 4.544 h -4.544 z"></path>    <path inkscape:connector-curvature="0" id="path704" style="fill:#8797a3;fill-opacity:1;fill-rule:evenodd;stroke:none" d="m 148.87,337.295 h 4.544 v 4.545 h -4.544 z"></path>    <path inkscape:connector-curvature="0" id="path706" style="fill:#8797a3;fill-opacity:1;fill-rule:evenodd;stroke:none" d="m 155.308,343.606 h 4.544 v 4.544 h -4.544 z"></path>    <path inkscape:connector-curvature="0" id="path708" style="fill:#8797a3;fill-opacity:1;fill-rule:evenodd;stroke:none" d="m 161.619,343.606 h 4.545 v 4.544 h -4.545 z"></path>    <path inkscape:connector-curvature="0" id="path710" style="fill:#8797a3;fill-opacity:1;fill-rule:evenodd;stroke:none" d="m 136.121,324.545 h 4.544 v 4.545 h -4.544 z"></path>    <path inkscape:connector-curvature="0" id="path712" style="fill:#8797a3;fill-opacity:1;fill-rule:evenodd;stroke:none" d="m 142.558,324.545 h 4.544 v 4.545 h -4.544 z"></path>    <path inkscape:connector-curvature="0" id="path714" style="fill:#8797a3;fill-opacity:1;fill-rule:evenodd;stroke:none" d="m 148.87,330.857 h 4.544 v 4.544 h -4.544 z"></path>    <path inkscape:connector-curvature="0" id="path716" style="fill:#8797a3;fill-opacity:1;fill-rule:evenodd;stroke:none" d="m 155.308,337.295 h 4.544 v 4.545 h -4.544 z"></path>    <path inkscape:connector-curvature="0" id="path718" style="fill:#8797a3;fill-opacity:1;fill-rule:evenodd;stroke:none" d="m 161.619,337.295 h 4.545 v 4.545 h -4.545 z"></path>    <path inkscape:connector-curvature="0" id="path720" style="fill:#8797a3;fill-opacity:1;fill-rule:evenodd;stroke:none" d="m 155.308,330.857 h 4.544 v 4.544 h -4.544 z"></path>    <path inkscape:connector-curvature="0" id="path722" style="fill:#8797a3;fill-opacity:1;fill-rule:evenodd;stroke:none" d="m 161.619,330.857 h 4.545 v 4.544 h -4.545 z"></path>    <path inkscape:connector-curvature="0" id="path724" style="fill:#8797a3;fill-opacity:1;fill-rule:evenodd;stroke:none" d="m 155.308,324.545 h 4.544 v 4.545 h -4.544 z"></path>    <path inkscape:connector-curvature="0" id="path726" style="fill:#8797a3;fill-opacity:1;fill-rule:evenodd;stroke:none" d="m 161.619,324.545 h 3.409 v 3.408 h -3.409 z"></path>    <path inkscape:connector-curvature="0" id="path728" style="fill:#8797a3;fill-opacity:1;fill-rule:evenodd;stroke:none" d="m 161.619,318.107 h 4.545 v 4.545 h -4.545 z"></path>    <path inkscape:connector-curvature="0" id="path730" style="fill:#8797a3;fill-opacity:1;fill-rule:evenodd;stroke:none" d="m 157.58,315.836 h 2.272 v 2.272 h -2.272 z"></path>    <path inkscape:connector-curvature="0" id="path732" style="fill:#8797a3;fill-opacity:1;fill-rule:evenodd;stroke:none" d="m 168.057,318.107 h 2.272 v 2.272 h -2.272 z"></path>    <path inkscape:connector-curvature="0" id="path734" style="fill:#8797a3;fill-opacity:1;fill-rule:evenodd;stroke:none" d="m 168.057,311.669 h 4.544 v 4.671 h -4.544 z"></path>    <path inkscape:connector-curvature="0" id="path736" style="fill:#8797a3;fill-opacity:1;fill-rule:evenodd;stroke:none" d="m 174.369,311.669 h 3.408 v 3.534 h -3.408 z"></path>    <path inkscape:connector-curvature="0" id="path738" style="fill:#8797a3;fill-opacity:1;fill-rule:evenodd;stroke:none" d="m 174.369,305.358 h 4.544 v 4.545 h -4.544 z"></path>    <path inkscape:connector-curvature="0" id="path740" style="fill:#8797a3;fill-opacity:1;fill-rule:evenodd;stroke:none" d="m 180.807,306.494 h 3.408 v 3.408 h -3.408 z"></path>    <path inkscape:connector-curvature="0" id="path742" style="fill:#8797a3;fill-opacity:1;fill-rule:evenodd;stroke:none" d="m 161.619,311.669 h 4.545 v 4.671 h -4.545 z"></path>    <path inkscape:connector-curvature="0" id="path744" style="fill:#8797a3;fill-opacity:1;fill-rule:evenodd;stroke:none" d="m 170.329,307.63 h 2.272 v 2.272 h -2.272 z"></path>    <path inkscape:connector-curvature="0" id="path746" style="fill:#8797a3;fill-opacity:1;fill-rule:evenodd;stroke:none" d="m 174.369,298.92 h 4.544 v 4.671 h -4.544 z"></path>    <path inkscape:connector-curvature="0" id="path748" style="fill:#8797a3;fill-opacity:1;fill-rule:evenodd;stroke:none" d="m 168.057,292.609 h 4.544 v 4.544 h -4.544 z"></path>    <path inkscape:connector-curvature="0" id="path750" style="fill:#8797a3;fill-opacity:1;fill-rule:evenodd;stroke:none" d="m 163.891,298.92 h 2.272 v 2.272 h -2.272 z"></path>    <path inkscape:connector-curvature="0" id="path752" style="fill:#8797a3;fill-opacity:1;fill-rule:evenodd;stroke:none" d="m 163.891,294.88 h 2.272 v 2.273 h -2.272 z"></path>    <path inkscape:connector-curvature="0" id="path754" style="fill:#8797a3;fill-opacity:1;fill-rule:evenodd;stroke:none" d="m 169.193,298.92 h 3.408 v 3.535 h -3.408 z"></path>    <path inkscape:connector-curvature="0" id="path756" style="fill:#8797a3;fill-opacity:1;fill-rule:evenodd;stroke:none" d="m 156.444,319.244 h 3.409 v 3.408 h -3.409 z"></path>    <path inkscape:connector-curvature="0" id="path758" style="fill:#8797a3;fill-opacity:1;fill-rule:evenodd;stroke:none" d="m 148.87,318.107 h 4.544 v 4.545 h -4.544 z"></path>    <path inkscape:connector-curvature="0" id="path760" style="fill:#8797a3;fill-opacity:1;fill-rule:evenodd;stroke:none" d="m 148.87,311.669 h 3.408 v 3.534 h -3.408 z"></path>    <path inkscape:connector-curvature="0" id="path762" style="fill:#8797a3;fill-opacity:1;fill-rule:evenodd;stroke:none" d="m 148.87,305.358 h 4.544 v 4.545 h -4.544 z"></path>    <path inkscape:connector-curvature="0" id="path764" style="fill:#8797a3;fill-opacity:1;fill-rule:evenodd;stroke:none" d="m 144.83,305.358 h 2.272 v 2.273 h -2.272 z"></path>    <path inkscape:connector-curvature="0" id="path766" style="fill:#8797a3;fill-opacity:1;fill-rule:evenodd;stroke:none" d="m 144.83,309.903 h 2.272 v 2.272 h -2.272 z"></path>    <path inkscape:connector-curvature="0" id="path768" style="fill:#8797a3;fill-opacity:1;fill-rule:evenodd;stroke:none" d="m 148.87,301.192 h 2.272 v 2.399 h -2.272 z"></path>    <path inkscape:connector-curvature="0" id="path770" style="fill:#8797a3;fill-opacity:1;fill-rule:evenodd;stroke:none" d="m 150.006,325.682 h 3.409 v 3.408 h -3.409 z"></path>    <path inkscape:connector-curvature="0" id="path772" style="fill:#8797a3;fill-opacity:1;fill-rule:evenodd;stroke:none" d="m 142.558,320.38 h 2.272 v 2.272 h -2.272 z"></path>    <path inkscape:connector-curvature="0" id="path774" style="fill:#8797a3;fill-opacity:1;fill-rule:evenodd;stroke:none" d="m 138.393,320.38 h 2.272 v 2.272 h -2.272 z"></path>    <path inkscape:connector-curvature="0" id="path776" style="fill:#8797a3;fill-opacity:1;fill-rule:evenodd;stroke:none" d="m 116.933,324.545 h 4.671 v 4.545 h -4.671 z"></path>    <path inkscape:connector-curvature="0" id="path778" style="fill:#8797a3;fill-opacity:1;fill-rule:evenodd;stroke:none" d="m 119.332,335.023 h 2.272 v 2.272 h -2.272 z"></path>    <path inkscape:connector-curvature="0" id="path780" style="fill:#8797a3;fill-opacity:1;fill-rule:evenodd;stroke:none" d="m 119.332,330.857 h 2.272 v 2.273 h -2.272 z"></path>    <path inkscape:connector-curvature="0" id="path782" style="fill:#8797a3;fill-opacity:1;fill-rule:evenodd;stroke:none" d="m 110.622,324.545 h 4.545 v 4.545 h -4.545 z"></path>    <path inkscape:connector-curvature="0" id="path784" style="fill:#8797a3;fill-opacity:1;fill-rule:evenodd;stroke:none" d="m 104.184,324.545 h 4.671 v 4.545 h -4.671 z"></path>    <path inkscape:connector-curvature="0" id="path786" style="fill:#8797a3;fill-opacity:1;fill-rule:evenodd;stroke:none" d="m 104.184,330.857 h 2.399 v 2.273 h -2.399 z"></path>    <path inkscape:connector-curvature="0" id="path788" style="fill:#8797a3;fill-opacity:1;fill-rule:evenodd;stroke:none" d="m 97.872,324.545 h 4.544 v 4.545 h -4.544 z"></path>    <path inkscape:connector-curvature="0" id="path790" style="fill:#8797a3;fill-opacity:1;fill-rule:evenodd;stroke:none" d="m 97.872,330.857 h 4.544 v 4.544 h -4.544 z"></path>    <path inkscape:connector-curvature="0" id="path792" style="fill:#8797a3;fill-opacity:1;fill-rule:evenodd;stroke:none" d="m 92.57,324.545 h 3.409 v 3.408 H 92.57 Z"></path>    <path inkscape:connector-curvature="0" id="path794" style="fill:#8797a3;fill-opacity:1;fill-rule:evenodd;stroke:none" d="m 123.371,318.107 h 4.544 v 4.545 h -4.544 z"></path>    <path inkscape:connector-curvature="0" id="path796" style="fill:#8797a3;fill-opacity:1;fill-rule:evenodd;stroke:none" d="m 129.809,320.38 h 2.273 v 2.272 h -2.273 z"></path>    <path inkscape:connector-curvature="0" id="path798" style="fill:#8797a3;fill-opacity:1;fill-rule:evenodd;stroke:none" d="m 129.809,315.836 h 2.273 v 2.272 h -2.273 z"></path>    <path inkscape:connector-curvature="0" id="path800" style="fill:#8797a3;fill-opacity:1;fill-rule:evenodd;stroke:none" d="m 123.371,312.932 h 3.409 v 3.408 h -3.409 z"></path>    <path inkscape:connector-curvature="0" id="path802" style="fill:#8797a3;fill-opacity:1;fill-rule:evenodd;stroke:none" d="m 116.933,318.107 h 4.671 v 4.545 h -4.671 z"></path>    <path inkscape:connector-curvature="0" id="path804" style="fill:#8797a3;fill-opacity:1;fill-rule:evenodd;stroke:none" d="m 116.933,311.669 h 4.671 v 4.671 h -4.671 z"></path>    <path inkscape:connector-curvature="0" id="path806" style="fill:#8797a3;fill-opacity:1;fill-rule:evenodd;stroke:none" d="m 116.933,307.63 h 2.398 v 2.272 h -2.398 z"></path>    <path inkscape:connector-curvature="0" id="path808" style="fill:#8797a3;fill-opacity:1;fill-rule:evenodd;stroke:none" d="m 110.622,318.107 h 4.545 v 4.545 h -4.545 z"></path>    <path inkscape:connector-curvature="0" id="path810" style="fill:#8797a3;fill-opacity:1;fill-rule:evenodd;stroke:none" d="m 110.622,311.669 h 4.545 v 4.671 h -4.545 z"></path>    <path inkscape:connector-curvature="0" id="path812" style="fill:#8797a3;fill-opacity:1;fill-rule:evenodd;stroke:none" d="m 110.622,305.358 h 4.545 v 4.545 h -4.545 z"></path>    <path inkscape:connector-curvature="0" id="path814" style="fill:#8797a3;fill-opacity:1;fill-rule:evenodd;stroke:none" d="m 104.184,318.107 h 4.671 v 4.545 h -4.671 z"></path>    <path inkscape:connector-curvature="0" id="path816" style="fill:#8797a3;fill-opacity:1;fill-rule:evenodd;stroke:none" d="m 104.184,311.669 h 4.671 v 4.671 h -4.671 z"></path>    <path inkscape:connector-curvature="0" id="path818" style="fill:#8797a3;fill-opacity:1;fill-rule:evenodd;stroke:none" d="m 104.184,305.358 h 4.671 v 4.545 h -4.671 z"></path>    <path inkscape:connector-curvature="0" id="path820" style="fill:#8797a3;fill-opacity:1;fill-rule:evenodd;stroke:none" d="m 104.184,301.192 h 2.272 v 2.399 h -2.272 z"></path>    <path inkscape:connector-curvature="0" id="path822" style="fill:#8797a3;fill-opacity:1;fill-rule:evenodd;stroke:none" d="m 97.872,318.107 h 4.544 v 4.545 h -4.544 z"></path>    <path inkscape:connector-curvature="0" id="path824" style="fill:#8797a3;fill-opacity:1;fill-rule:evenodd;stroke:none" d="m 97.872,311.669 h 4.544 v 4.671 h -4.544 z"></path>    <path inkscape:connector-curvature="0" id="path826" style="fill:#8797a3;fill-opacity:1;fill-rule:evenodd;stroke:none" d="m 97.872,305.358 h 4.544 v 4.545 h -4.544 z"></path>    <path inkscape:connector-curvature="0" id="path828" style="fill:#8797a3;fill-opacity:1;fill-rule:evenodd;stroke:none" d="m 99.008,300.056 h 3.408 v 3.535 h -3.408 z"></path>    <path inkscape:connector-curvature="0" id="path830" style="fill:#8797a3;fill-opacity:1;fill-rule:evenodd;stroke:none" d="m 95.6,301.192 h 2.272 v 2.399 H 95.6 Z"></path>    <path inkscape:connector-curvature="0" id="path832" style="fill:#8797a3;fill-opacity:1;fill-rule:evenodd;stroke:none" d="m 91.434,318.107 h 4.545 v 4.545 h -4.545 z"></path>    <path inkscape:connector-curvature="0" id="path834" style="fill:#8797a3;fill-opacity:1;fill-rule:evenodd;stroke:none" d="m 86.259,316.34 h 3.408 v 3.408 h -3.408 z"></path>    <path inkscape:connector-curvature="0" id="path836" style="fill:#8797a3;fill-opacity:1;fill-rule:evenodd;stroke:none" d="m 91.434,311.669 h 4.545 v 4.671 h -4.545 z"></path>    <path inkscape:connector-curvature="0" id="path838" style="fill:#8797a3;fill-opacity:1;fill-rule:evenodd;stroke:none" d="m 86.259,311.669 h 3.408 v 3.534 h -3.408 z"></path>    <path inkscape:connector-curvature="0" id="path840" style="fill:#8797a3;fill-opacity:1;fill-rule:evenodd;stroke:none" d="m 92.57,306.494 h 3.409 v 3.408 H 92.57 Z"></path>    <path inkscape:connector-curvature="0" id="path842" style="fill:#8797a3;fill-opacity:1;fill-rule:evenodd;stroke:none" d="m 88.026,306.494 h 3.408 v 3.408 h -3.408 z"></path>    <path d="m 185.3124,361.1924 h 30.303 v -7.813 h -18.971 v -5.816 h 17.598 v -7.463 h -17.598 v -7.214 h 19.52 v -8.287 h -30.852 z" style="fill:#910830;fill-opacity:1;fill-rule:nonzero;stroke:none" id="path852" inkscape:connector-curvature="0"></path>    <path d="m 233.7618,346.3654 h 4.768 c 0.515,0 1.514,0.166 2.995,0.499 0.748,0.15 1.36,0.533 1.834,1.149 0.475,0.615 0.712,1.323 0.712,2.121 0,1.182 -0.375,2.088 -1.123,2.721 -0.749,0.633 -2.156,0.949 -4.219,0.949 h -4.967 z m -11.357,-21.766 v 36.593 h 18.846 c 3.494,0 6.165,-0.3 8.012,-0.899 1.847,-0.598 3.336,-1.709 4.468,-3.332 1.131,-1.622 1.697,-3.598 1.697,-5.928 0,-2.03 -0.433,-3.782 -1.299,-5.254 -0.866,-1.473 -2.056,-2.668 -3.571,-3.582 -0.966,-0.583 -2.289,-1.065 -3.971,-1.448 1.346,-0.45 2.329,-0.899 2.943,-1.349 0.417,-0.3 1.019,-0.942 1.809,-1.924 0.79,-0.983 1.318,-1.741 1.583,-2.273 l 5.477,-10.604 h -12.777 l -6.043,11.182 c -0.766,1.448 -1.449,2.389 -2.048,2.822 -0.815,0.565 -1.739,0.848 -2.771,0.848 h -0.998 v -14.852 z" style="fill:#910830;fill-opacity:1;fill-rule:nonzero;stroke:none" id="path856" inkscape:connector-curvature="0"></path>    <path d="m 285.4561,339.5764 9.91,-2.995 c -0.667,-2.78 -1.715,-5.101 -3.145,-6.965 -1.432,-1.863 -3.208,-3.269 -5.33,-4.218 -2.121,-0.948 -4.821,-1.423 -8.1,-1.423 -3.977,0 -7.226,0.578 -9.747,1.733 -2.521,1.157 -4.697,3.189 -6.527,6.099 -1.831,2.91 -2.745,6.636 -2.745,11.176 0,6.053 1.609,10.705 4.829,13.956 3.22,3.251 7.776,4.877 13.666,4.877 4.609,0 8.233,-0.932 10.871,-2.796 2.637,-1.864 4.596,-4.726 5.878,-8.586 l -9.985,-2.222 c -0.349,1.115 -0.716,1.93 -1.097,2.446 -0.633,0.866 -1.407,1.531 -2.322,1.997 -0.915,0.466 -1.939,0.699 -3.07,0.699 -2.563,0 -4.527,-1.03 -5.891,-3.091 -1.032,-1.529 -1.548,-3.931 -1.548,-7.205 0,-4.056 0.616,-6.836 1.847,-8.34 1.232,-1.504 2.963,-2.256 5.193,-2.256 2.162,0 3.797,0.607 4.904,1.822 1.106,1.214 1.91,2.979 2.409,5.292" style="fill:#910830;fill-opacity:1;fill-rule:nonzero;stroke:none" id="path860" inkscape:connector-curvature="0"></path>    <path d="m 301.306,361.192 h 11.333 v -36.593 h -11.333 z" style="fill:#910830;fill-opacity:1;fill-rule:nonzero;stroke:none" id="path870" inkscape:connector-curvature="0"></path>    <g id="g872" transform="translate(318.7788,336.7058)" style="fill:#910830;fill-opacity:1">      <path d="m 0,0 10.758,0.674 c 0.233,-1.747 0.707,-3.079 1.423,-3.994 1.164,-1.481 2.829,-2.221 4.992,-2.221 1.614,0 2.858,0.378 3.732,1.135 0.874,0.757 1.31,1.635 1.31,2.634 0,0.949 -0.416,1.797 -1.248,2.546 C 20.135,1.523 18.205,2.23 15.176,2.896 10.217,4.01 6.681,5.491 4.568,7.339 2.438,9.186 1.373,11.54 1.373,14.402 c 0,1.881 0.545,3.657 1.634,5.329 1.091,1.673 2.73,2.988 4.918,3.944 2.188,0.957 5.187,1.436 8.999,1.436 4.675,0 8.241,-0.87 10.695,-2.609 2.455,-1.739 3.915,-4.506 4.381,-8.299 L 21.342,13.579 c -0.284,1.648 -0.878,2.845 -1.785,3.594 -0.907,0.749 -2.16,1.123 -3.757,1.123 -1.315,0 -2.305,-0.279 -2.97,-0.836 -0.666,-0.557 -0.999,-1.235 -0.999,-2.034 0,-0.583 0.275,-1.107 0.824,-1.573 0.533,-0.482 1.798,-0.932 3.794,-1.348 4.943,-1.065 8.483,-2.142 10.621,-3.232 2.138,-1.09 3.694,-2.442 4.668,-4.056 0.974,-1.615 1.461,-3.42 1.461,-5.417 0,-2.346 -0.65,-4.509 -1.948,-6.49 -1.298,-1.98 -3.112,-3.482 -5.441,-4.505 -2.33,-1.024 -5.267,-1.536 -8.812,-1.536 -6.223,0 -10.533,1.199 -12.929,3.595 C 1.672,-6.74 0.316,-3.694 0,0" style="fill:#910830;fill-opacity:1;fill-rule:nonzero;stroke:none" id="path874" inkscape:connector-curvature="0"></path>    </g>  </g></svg>